<svg width="59" height="66" viewBox="0 0 59 66" fill="none" xmlns="http://www.w3.org/2000/svg">
<path d="M54.7857 4.125H4.20112C1.88326 4.125 0 5.99414 0 8.28867V57.7113C0 60.0059 1.88326 61.875 4.20112 61.875H54.7857C57.1036 61.875 59 60.0059 59 57.7113V8.28867C59 5.99414 57.1036 4.125 54.7857 4.125ZM17.8317 53.625H9.08705V26.0648H17.8449V53.625H17.8317ZM13.4594 22.3008C10.6542 22.3008 8.38906 20.0707 8.38906 17.3379C8.38906 14.6051 10.6542 12.375 13.4594 12.375C16.2513 12.375 18.5297 14.6051 18.5297 17.3379C18.5297 20.0836 16.2645 22.3008 13.4594 22.3008ZM50.6109 53.625H41.8663V40.2188C41.8663 37.0219 41.8004 32.9098 37.3228 32.9098C32.7661 32.9098 32.0681 36.3902 32.0681 39.9867V53.625H23.3234V26.0648H31.7125V29.8289H31.831C33.0031 27.6633 35.8609 25.3816 40.1147 25.3816C48.9647 25.3816 50.6109 31.0922 50.6109 38.5172V53.625Z" fill="black"/>
</svg>
