<svg width="58" height="66" viewBox="0 0 58 66" fill="none" xmlns="http://www.w3.org/2000/svg">
<path d="M8.28571 4.125C3.71563 4.125 0 7.82461 0 12.375V53.625C0 58.1754 3.71563 61.875 8.28571 61.875H20.9991V43.0805H14.1634V33H20.9991V28.6559C20.9991 17.4281 26.1 12.2203 37.1821 12.2203C39.2795 12.2203 42.9045 12.6328 44.3933 13.0453V22.1719C43.6165 22.0945 42.2571 22.043 40.5612 22.043C35.1237 22.043 33.0263 24.0926 33.0263 29.4164V33H43.8496L41.9853 43.0805H33.0134V61.875H49.7143C54.2844 61.875 58 58.1754 58 53.625V12.375C58 7.82461 54.2844 4.125 49.7143 4.125H8.28571Z" fill="black"/>
</svg>
