<svg width="58" height="66" viewBox="0 0 58 66" fill="none" xmlns="http://www.w3.org/2000/svg">
<path d="M25.1679 27.2895C24.4138 27.7914 23.7665 28.4363 23.2628 29.1873C22.7591 29.9383 22.4089 30.7808 22.2321 31.6665C21.8752 33.4555 22.2467 35.3123 23.2647 36.8285C24.2828 38.3448 25.8641 39.3962 27.6608 39.7516C29.4574 40.1069 31.3223 39.7371 32.8451 38.7234C34.3679 37.7098 35.4239 36.1353 35.7808 34.3464C36.1377 32.5574 35.7663 30.7006 34.7482 29.1844C33.7301 27.6681 32.1488 26.6167 30.3522 26.2613C28.5555 25.9059 26.6907 26.2758 25.1679 27.2895ZM43.5906 18.4723C42.9174 17.802 42.1018 17.2734 41.2085 16.9254C38.8652 16.0102 33.7513 16.0488 30.45 16.0875C29.9192 16.0875 29.4272 16.1004 29 16.1004C28.5728 16.1004 28.0679 16.1004 27.5241 16.0875C24.2228 16.0488 19.1348 15.9973 16.7915 16.9254C15.8982 17.2734 15.0955 17.802 14.4094 18.4723C13.7232 19.1426 13.2054 19.9547 12.8558 20.8441C11.9366 23.1773 11.9884 28.282 12.0143 31.5691C12.0143 32.0977 12.0272 32.5875 12.0272 33C12.0272 33.4125 12.0272 33.9023 12.0143 34.4309C11.9884 37.718 11.9366 42.8227 12.8558 45.1559C13.2054 46.0453 13.7362 46.8445 14.4094 47.5277C15.0826 48.2109 15.8982 48.7266 16.7915 49.0746C19.1348 49.9898 24.2487 49.9512 27.55 49.9125C28.0808 49.9125 28.5728 49.8996 29 49.8996C29.4272 49.8996 29.9321 49.8996 30.4759 49.9125C33.7772 49.9512 38.8652 50.0027 41.2085 49.0746C42.1018 48.7266 42.9045 48.198 43.5906 47.5277C44.2768 46.8574 44.7946 46.0453 45.1442 45.1559C46.0763 42.8355 46.0246 37.7566 45.9857 34.4566C45.9857 33.9152 45.9728 33.4125 45.9728 32.9871C45.9728 32.5617 45.9728 32.0719 45.9857 31.5176C46.0246 28.2305 46.0763 23.1516 45.1442 20.8184C44.7946 19.9289 44.2638 19.1297 43.5906 18.4465V18.4723ZM34.9036 24.2086C37.2453 25.7676 38.8691 28.1889 39.4178 30.94C39.9665 33.6911 39.3952 36.5465 37.8295 38.8781C37.0542 40.0326 36.0581 41.0238 34.8982 41.795C33.7382 42.5662 32.437 43.1024 31.0689 43.3729C28.3059 43.9193 25.4381 43.3504 23.0964 41.7914C20.7547 40.2341 19.1302 37.8144 18.5803 35.0646C18.0303 32.3147 18.6001 29.4599 20.1641 27.1283C21.7281 24.7967 24.1583 23.1792 26.92 22.6316C29.6818 22.0841 32.5489 22.6513 34.8906 24.2086H34.9036ZM38.6839 24.041C38.2826 23.7703 37.9589 23.3836 37.7647 22.9324C37.5705 22.4812 37.5317 21.9914 37.6223 21.5016C37.7129 21.0117 37.9589 20.5863 38.2955 20.2383C38.6321 19.8902 39.0853 19.6582 39.5643 19.568C40.0433 19.4777 40.5482 19.5164 41.0013 19.7098C41.4545 19.9031 41.8429 20.2125 42.1147 20.6121C42.3866 21.0117 42.529 21.4887 42.529 21.9785C42.529 22.3008 42.4643 22.623 42.3478 22.9195C42.2313 23.216 42.0371 23.4867 41.817 23.7188C41.5969 23.9508 41.312 24.1313 41.0143 24.2602C40.7165 24.3891 40.3929 24.4535 40.0692 24.4535C39.5772 24.4535 39.0982 24.3117 38.6969 24.041H38.6839ZM58 12.375C58 7.82461 54.2844 4.125 49.7143 4.125H8.28571C3.71563 4.125 0 7.82461 0 12.375V53.625C0 58.1754 3.71563 61.875 8.28571 61.875H49.7143C54.2844 61.875 58 58.1754 58 53.625V12.375ZM46.2188 50.1445C43.7978 52.5551 40.8589 53.3156 37.5446 53.4832C34.1268 53.6766 23.8732 53.6766 20.4554 53.4832C17.1411 53.3156 14.2022 52.5551 11.7812 50.1445C9.36027 47.734 8.59643 44.8078 8.44107 41.5078C8.24687 38.1047 8.24687 27.8953 8.44107 24.4922C8.60937 21.1922 9.36027 18.266 11.7812 15.8555C14.2022 13.4449 17.154 12.6844 20.4554 12.5297C23.8732 12.3363 34.1268 12.3363 37.5446 12.5297C40.8589 12.6973 43.7978 13.4449 46.2188 15.8555C48.6397 18.266 49.4036 21.1922 49.5589 24.4922C49.7531 27.8824 49.7531 38.0789 49.5589 41.4949C49.3906 44.7949 48.6397 47.7211 46.2188 50.1316V50.1445Z" fill="black"/>
</svg>
