<svg width="640" height="512" viewBox="0 0 640 512" fill="none" xmlns="http://www.w3.org/2000/svg">
<path d="M290.499 189C270.199 178.9 246.399 177.8 225.799 185.1C268.399 185.1 296.999 205.6 311.399 235.7C319.999 253.6 306.299 273.8 287.799 273.8C306.199 273.8 319.999 293.9 311.399 311.9C296.699 342.7 265.299 362.8 231.099 362.8C230.499 362.8 136.599 354.2 136.599 354.2L70.1993 387.5C60.7993 392.2 50.3993 387.9 46.2993 379.7L1.89934 290.7C-2.30066 282.1 0.799338 271.8 8.79934 267.1L66.8993 234L107.999 159.9C114.399 102.7 142.699 50.1002 187.699 13.2002C199.099 3.8002 215.999 5.4002 225.199 16.8002C234.599 28.2002 232.999 44.9002 221.599 54.3002C209.099 64.9002 197.999 76.8002 189.099 89.9002C210.799 75.2002 235.799 65.2002 263.299 61.8002C277.999 59.9002 291.399 70.1002 292.999 84.9002C294.899 99.6002 284.699 113 269.899 114.6C253.799 116.5 238.799 122.1 225.699 129.9C251.799 124.2 284.399 126.8 313.799 141C327.099 147.7 332.699 163.5 325.999 176.8C319.599 189.9 303.499 195.4 290.399 189H290.499ZM263.299 258.5C257.199 246 244.999 238.2 231.099 238.2C226.421 238.187 221.785 239.099 217.46 240.883C213.135 242.668 209.205 245.289 205.897 248.598C202.589 251.906 199.967 255.836 198.182 260.161C196.398 264.486 195.486 269.121 195.499 273.8C195.499 295.2 213.299 309.4 231.099 309.4C244.999 309.4 257.199 301.6 263.299 289.1C267.699 279.7 276.899 274.1 286.599 273.8C276.899 273.5 267.699 268 263.299 258.5ZM638.099 221.3C642.299 229.9 639.199 240.2 631.199 244.9L573.099 278L531.999 352.2C525.599 409.4 497.299 462 452.299 498.9C441.399 508 424.499 507 414.799 495.3C405.399 483.9 406.999 467.2 418.399 457.8C430.899 447.2 441.999 435.3 450.899 422.2C429.199 436.9 404.199 446.9 376.699 450.3C366.699 452.8 349.099 444.7 346.999 427.2C345.099 412.5 355.299 399.1 370.099 397.5C386.199 395.6 401.199 390 414.299 382.2C388.199 387.9 355.599 385.3 326.199 371.1C312.899 364.4 307.299 348.6 313.999 335.3C320.399 322.2 336.499 316.7 349.599 323.1C369.899 333.2 393.699 334.3 414.299 327C371.699 327 343.099 306.5 328.699 276.4C320.099 258.5 333.799 238.3 352.299 238.3C333.899 238.3 320.099 218.2 328.699 200.2C342.699 170.8 372.699 149.3 410.699 149.3L503.499 157.9L569.899 124.6C579.299 119.9 589.699 124.2 593.799 132.4L638.299 221.3H638.099ZM408.899 202.7C394.999 202.7 382.799 210.5 376.699 223C372.299 232.4 363.099 238 353.399 238.3C363.099 238.6 372.299 244.1 376.699 253.6C382.799 266.1 394.999 273.9 408.899 273.9C413.578 273.913 418.213 273.002 422.538 271.217C426.864 269.433 430.793 266.811 434.102 263.503C437.41 260.194 440.032 256.264 441.816 251.939C443.601 247.614 444.513 242.979 444.499 238.3C444.499 216.9 426.699 202.7 408.899 202.7Z" fill="white"/>
</svg>
