<svg width="494" height="94" viewBox="0 0 494 94" fill="none" xmlns="http://www.w3.org/2000/svg">
<g clip-path="url(#clip0_196_130)">
<path d="M316.723 85.5894C316.723 85.8594 316.703 86.1193 316.663 86.3593C316.623 86.5993 316.553 86.8393 316.463 87.0593C316.363 87.2893 316.243 87.4793 316.103 87.6393C315.953 87.7993 315.763 87.9294 315.533 88.0294C315.303 88.1294 315.033 88.1793 314.743 88.1793C314.453 88.1793 314.193 88.1294 313.963 88.0394C313.733 87.9394 313.543 87.8194 313.403 87.6594C313.253 87.4994 313.133 87.3093 313.033 87.0793C312.933 86.8493 312.863 86.6193 312.823 86.3693C312.783 86.1293 312.763 85.8594 312.763 85.5894V81.9094H311.613V85.5894C311.613 85.9794 311.643 86.3493 311.713 86.6893C311.783 87.0293 311.893 87.3593 312.053 87.6793C312.213 87.9893 312.403 88.2593 312.643 88.4893C312.883 88.7093 313.173 88.8893 313.533 89.0193C313.893 89.1493 314.293 89.2194 314.743 89.2194C315.283 89.2194 315.763 89.1293 316.173 88.9393C316.583 88.7493 316.913 88.4894 317.153 88.1494C317.393 87.8094 317.583 87.4293 317.703 86.9993C317.823 86.5693 317.883 86.0994 317.883 85.5894V81.9094H316.723V85.5894ZM326.503 87.1594L322.383 81.9094H321.443V89.1694H322.583V84.0394L326.643 89.1694H327.643V81.9194H326.493V87.1594H326.503ZM331.333 89.1694H332.473V81.9094H331.333V89.1694ZM338.263 81.9094L335.413 89.1694H336.633L337.393 87.1993H340.193L340.953 89.1694H342.163L339.343 81.9094H338.263ZM337.593 86.3494L338.793 83.1694L339.963 86.3494H337.593ZM337.643 80.9493C337.643 80.9493 337.673 80.8594 337.703 80.7894C337.733 80.7294 337.783 80.6693 337.853 80.6293C337.923 80.5893 338.013 80.5593 338.123 80.5593C338.243 80.5593 338.373 80.5994 338.503 80.6694C338.633 80.7394 338.783 80.8193 338.943 80.8893C339.103 80.9593 339.273 80.9993 339.443 80.9993C339.613 80.9993 339.773 80.9593 339.913 80.8893C340.053 80.8193 340.163 80.7293 340.253 80.6293C340.333 80.5293 340.403 80.4193 340.463 80.3093C340.523 80.1893 340.563 80.0893 340.583 80.0093C340.603 79.9293 340.613 79.8593 340.613 79.8193H339.973C339.973 79.8193 339.973 79.8593 339.973 79.8893C339.973 79.9193 339.953 79.9593 339.933 80.0093C339.913 80.0593 339.883 80.1094 339.843 80.1494C339.803 80.1894 339.753 80.2293 339.683 80.2593C339.613 80.2893 339.533 80.3093 339.433 80.3093C339.293 80.3093 339.163 80.2693 339.023 80.1993C338.883 80.1293 338.733 80.0494 338.583 79.9794C338.433 79.9094 338.273 79.8693 338.103 79.8693C337.943 79.8693 337.793 79.8994 337.663 79.9694C337.533 80.0394 337.423 80.1194 337.353 80.2194C337.273 80.3194 337.213 80.4194 337.153 80.5394C337.093 80.6494 337.063 80.7594 337.043 80.8394C337.023 80.9294 337.013 80.9894 337.013 81.0394H337.643C337.643 81.0394 337.643 80.9793 337.653 80.9393M350.383 83.0193C350.093 82.6693 349.723 82.3893 349.283 82.1793C348.843 81.9693 348.373 81.8593 347.873 81.8593C347.373 81.8593 346.923 81.9594 346.483 82.1594C346.043 82.3594 345.673 82.6294 345.373 82.9694C345.063 83.3094 344.823 83.6994 344.643 84.1494C344.463 84.5994 344.373 85.0594 344.373 85.5394C344.373 85.9094 344.423 86.2793 344.533 86.6393C344.643 86.9993 344.793 87.3394 345.003 87.6494C345.203 87.9594 345.453 88.2294 345.723 88.4694C346.003 88.7094 346.323 88.8894 346.693 89.0294C347.063 89.1594 347.443 89.2294 347.853 89.2294C348.343 89.2294 348.803 89.1293 349.243 88.9293C349.683 88.7293 350.053 88.4593 350.353 88.1193C350.653 87.7793 350.893 87.3893 351.073 86.9493C351.253 86.4993 351.343 86.0393 351.343 85.5593C351.343 85.0793 351.263 84.6594 351.093 84.2094C350.923 83.7694 350.693 83.3694 350.393 83.0294M350.003 86.5093C349.903 86.8193 349.753 87.1093 349.563 87.3593C349.373 87.6093 349.133 87.8094 348.833 87.9694C348.533 88.1194 348.213 88.1993 347.863 88.1993C347.403 88.1993 346.993 88.0693 346.633 87.8193C346.273 87.5693 346.003 87.2394 345.813 86.8394C345.633 86.4394 345.533 86.0093 345.533 85.5493C345.533 85.2193 345.583 84.8994 345.693 84.5894C345.803 84.2794 345.953 83.9993 346.143 83.7493C346.333 83.4993 346.583 83.2994 346.883 83.1494C347.183 82.9994 347.503 82.9194 347.863 82.9194C348.223 82.9194 348.513 82.9893 348.813 83.1393C349.103 83.2793 349.343 83.4794 349.543 83.7194C349.733 83.9594 349.893 84.2493 350.003 84.5593C350.113 84.8793 350.173 85.2093 350.173 85.5493C350.173 85.8893 350.123 86.1993 350.013 86.5093M360.273 85.9393H363.513V84.9893H360.273V82.9293H364.023V81.9194H359.133V89.1793H364.113V88.1694H360.273V85.9493V85.9393ZM376.923 85.6093C377.183 85.2093 377.313 84.7693 377.313 84.2693C377.313 83.9793 377.253 83.6894 377.143 83.4094C377.033 83.1294 376.873 82.8694 376.683 82.6494C376.493 82.4294 376.253 82.2493 375.963 82.1093C375.683 81.9693 375.373 81.9094 375.063 81.9094H371.903V89.1694H373.043V86.6393H374.733L376.313 89.1694H377.603L375.893 86.4094C376.323 86.2694 376.663 86.0093 376.923 85.6093ZM375.053 85.6293H373.043V82.9194H374.983C375.293 82.9194 375.563 83.0493 375.793 83.3193C376.023 83.5793 376.143 83.8993 376.143 84.2693C376.143 84.6393 376.043 84.9694 375.833 85.2294C375.623 85.4894 375.363 85.6293 375.053 85.6293ZM381.843 85.9393H385.083V84.9893H381.843V82.9293H385.593V81.9194H380.703V89.1793H385.683V88.1694H381.843V85.9493V85.9393ZM393.233 87.6893C393.013 87.8693 392.783 88.0093 392.543 88.0793C392.303 88.1593 392.063 88.1993 391.813 88.1993C391.373 88.1993 390.973 88.0793 390.613 87.8293C390.253 87.5793 389.973 87.2494 389.773 86.8494C389.573 86.4394 389.473 86.0094 389.473 85.5394C389.473 85.2794 389.503 85.0294 389.563 84.7794C389.623 84.5294 389.723 84.2893 389.853 84.0693C389.983 83.8393 390.133 83.6494 390.313 83.4794C390.493 83.3094 390.713 83.1693 390.963 83.0693C391.213 82.9693 391.493 82.9194 391.783 82.9194C391.963 82.9194 392.143 82.9394 392.323 82.9794C392.493 83.0194 392.673 83.0794 392.843 83.1694C393.013 83.2494 393.173 83.3694 393.323 83.5294C393.473 83.6794 393.593 83.8693 393.683 84.0793L394.583 83.4794C394.343 82.9994 393.983 82.6193 393.493 82.3293C393.013 82.0393 392.453 81.8994 391.813 81.8994C391.383 81.8994 390.983 81.9693 390.603 82.1093C390.223 82.2493 389.893 82.4394 389.623 82.6694C389.343 82.9094 389.103 83.1793 388.903 83.4893C388.703 83.7993 388.553 84.1294 388.453 84.4694C388.353 84.8194 388.303 85.1693 388.303 85.5193C388.303 85.9793 388.393 86.4293 388.563 86.8793C388.733 87.3293 388.973 87.7293 389.273 88.0793C389.573 88.4293 389.943 88.7193 390.373 88.9293C390.813 89.1493 391.273 89.2493 391.773 89.2493C392.163 89.2493 392.553 89.1893 392.933 89.0593C393.323 88.9293 393.673 88.7394 393.993 88.4794C394.313 88.2194 394.553 87.9093 394.693 87.5693L393.743 87.0294C393.623 87.2994 393.453 87.5294 393.233 87.7094M403.263 83.0193C402.973 82.6693 402.603 82.3893 402.163 82.1793C401.723 81.9693 401.253 81.8593 400.753 81.8593C400.253 81.8593 399.803 81.9594 399.363 82.1594C398.923 82.3594 398.553 82.6294 398.253 82.9694C397.943 83.3094 397.703 83.6994 397.523 84.1494C397.343 84.5994 397.253 85.0594 397.253 85.5394C397.253 85.9094 397.303 86.2793 397.413 86.6393C397.523 86.9993 397.673 87.3394 397.883 87.6494C398.083 87.9594 398.333 88.2294 398.603 88.4694C398.883 88.7094 399.203 88.8894 399.573 89.0294C399.943 89.1594 400.323 89.2294 400.733 89.2294C401.223 89.2294 401.683 89.1293 402.123 88.9293C402.563 88.7293 402.933 88.4593 403.233 88.1193C403.533 87.7793 403.773 87.3893 403.953 86.9493C404.133 86.4993 404.223 86.0393 404.223 85.5593C404.223 85.0793 404.143 84.6594 403.973 84.2094C403.803 83.7694 403.573 83.3694 403.273 83.0294M402.883 86.5093C402.783 86.8193 402.633 87.1093 402.443 87.3593C402.253 87.6093 402.013 87.8094 401.713 87.9694C401.413 88.1194 401.093 88.1993 400.743 88.1993C400.283 88.1993 399.873 88.0693 399.513 87.8193C399.153 87.5693 398.883 87.2394 398.693 86.8394C398.513 86.4394 398.413 86.0093 398.413 85.5493C398.413 85.2193 398.463 84.8994 398.573 84.5894C398.683 84.2794 398.833 83.9993 399.023 83.7493C399.213 83.4993 399.463 83.2994 399.763 83.1494C400.063 82.9994 400.383 82.9194 400.743 82.9194C401.103 82.9194 401.393 82.9893 401.693 83.1393C401.983 83.2793 402.223 83.4794 402.423 83.7194C402.613 83.9594 402.773 84.2493 402.883 84.5593C402.993 84.8793 403.053 85.2093 403.053 85.5493C403.053 85.8893 403.003 86.1993 402.893 86.5093M412.513 87.1594L408.393 81.9094H407.453V89.1694H408.593V84.0394L412.653 89.1694H413.653V81.9194H412.503V87.1594H412.513ZM422.033 85.9493C421.903 85.8093 421.743 85.6793 421.533 85.5693C421.323 85.4593 421.103 85.3594 420.883 85.2894C420.653 85.2194 420.383 85.1393 420.063 85.0593C419.863 85.0093 419.703 84.9693 419.583 84.9393C419.463 84.9093 419.323 84.8693 419.183 84.8293C419.043 84.7793 418.933 84.7393 418.853 84.6993C418.773 84.6593 418.693 84.6093 418.603 84.5593C418.513 84.5093 418.453 84.4393 418.413 84.3793C418.373 84.3193 418.333 84.2494 418.313 84.1694C418.283 84.0894 418.273 83.9994 418.273 83.8994C418.273 83.5794 418.393 83.3294 418.623 83.1594C418.853 82.9894 419.213 82.8994 419.683 82.8994C420.083 82.8994 420.473 82.9793 420.843 83.1393C421.223 83.2993 421.483 83.4693 421.643 83.6393L422.163 82.6993C421.423 82.1493 420.603 81.8793 419.713 81.8793C419.333 81.8793 418.993 81.9293 418.673 82.0193C418.353 82.1193 418.073 82.2593 417.843 82.4393C417.603 82.6193 417.423 82.8593 417.283 83.1393C417.153 83.4193 417.083 83.7394 417.083 84.0894C417.083 84.3694 417.123 84.6093 417.213 84.8193C417.303 85.0293 417.443 85.1994 417.633 85.3494C417.823 85.4994 418.043 85.6294 418.293 85.7294C418.543 85.8294 418.863 85.9294 419.243 86.0294C419.493 86.0894 419.683 86.1393 419.833 86.1793C419.973 86.2193 420.133 86.2693 420.313 86.3293C420.483 86.3893 420.623 86.4493 420.713 86.4993C420.803 86.5593 420.903 86.6193 420.993 86.6993C421.083 86.7793 421.143 86.8694 421.183 86.9594C421.223 87.0594 421.233 87.1594 421.233 87.2794C421.233 87.5794 421.113 87.8094 420.863 87.9694C420.623 88.1294 420.273 88.2094 419.813 88.2094C419.313 88.2094 418.823 88.1094 418.343 87.9094C417.873 87.7094 417.523 87.4994 417.313 87.2794L416.793 88.2593C417.203 88.5793 417.673 88.8193 418.183 88.9893C418.703 89.1593 419.233 89.2393 419.783 89.2393C420.083 89.2393 420.363 89.2194 420.623 89.1694C420.883 89.1194 421.123 89.0393 421.353 88.9393C421.583 88.8293 421.773 88.6994 421.933 88.5394C422.093 88.3794 422.223 88.1793 422.313 87.9493C422.403 87.7193 422.453 87.4594 422.453 87.1694C422.453 86.9094 422.413 86.6794 422.343 86.4794C422.263 86.2794 422.163 86.0994 422.043 85.9594M424.973 82.9293H427.393V89.1793H428.553V82.9293H430.963V81.9194H424.973V82.9293ZM439.003 85.6093C439.263 85.2093 439.393 84.7693 439.393 84.2693C439.393 83.9793 439.333 83.6894 439.223 83.4094C439.113 83.1294 438.953 82.8694 438.763 82.6494C438.573 82.4294 438.333 82.2493 438.043 82.1093C437.753 81.9693 437.453 81.9094 437.143 81.9094H433.983V89.1694H435.123V86.6393H436.813L438.393 89.1694H439.683L437.973 86.4094C438.403 86.2694 438.743 86.0093 439.003 85.6093ZM437.133 85.6293H435.123V82.9194H437.063C437.373 82.9194 437.643 83.0493 437.873 83.3193C438.103 83.5793 438.223 83.8993 438.223 84.2693C438.223 84.6393 438.123 84.9694 437.913 85.2294C437.703 85.4894 437.443 85.6293 437.133 85.6293ZM447.783 85.5894C447.783 85.8594 447.763 86.1193 447.723 86.3593C447.683 86.5993 447.613 86.8393 447.523 87.0593C447.423 87.2893 447.303 87.4793 447.163 87.6393C447.013 87.7993 446.823 87.9294 446.593 88.0294C446.363 88.1294 446.093 88.1793 445.803 88.1793C445.513 88.1793 445.253 88.1294 445.023 88.0394C444.793 87.9394 444.603 87.8194 444.463 87.6594C444.313 87.4994 444.193 87.3093 444.093 87.0793C443.993 86.8493 443.923 86.6193 443.883 86.3693C443.843 86.1293 443.823 85.8594 443.823 85.5894V81.9094H442.673V85.5894C442.673 85.9794 442.703 86.3493 442.773 86.6893C442.843 87.0293 442.953 87.3593 443.113 87.6793C443.273 87.9893 443.463 88.2593 443.703 88.4893C443.943 88.7093 444.233 88.8893 444.593 89.0193C444.953 89.1493 445.353 89.2194 445.803 89.2194C446.343 89.2194 446.823 89.1293 447.233 88.9393C447.643 88.7493 447.973 88.4894 448.213 88.1494C448.453 87.8094 448.643 87.4293 448.763 86.9993C448.883 86.5693 448.943 86.0994 448.943 85.5894V81.9094H447.783V85.5894ZM456.983 87.6893C456.763 87.8693 456.533 88.0093 456.293 88.0793C456.053 88.1593 455.813 88.1993 455.563 88.1993C455.123 88.1993 454.723 88.0793 454.363 87.8293C454.003 87.5793 453.723 87.2494 453.523 86.8494C453.323 86.4394 453.223 86.0094 453.223 85.5394C453.223 85.2794 453.253 85.0294 453.313 84.7794C453.373 84.5294 453.473 84.2893 453.603 84.0693C453.733 83.8393 453.883 83.6494 454.063 83.4794C454.243 83.3094 454.463 83.1693 454.713 83.0693C454.963 82.9693 455.243 82.9194 455.533 82.9194C455.713 82.9194 455.893 82.9394 456.073 82.9794C456.253 83.0194 456.423 83.0794 456.593 83.1694C456.763 83.2494 456.923 83.3694 457.073 83.5294C457.223 83.6794 457.343 83.8693 457.433 84.0793L458.333 83.4794C458.093 82.9994 457.723 82.6193 457.243 82.3293C456.763 82.0393 456.203 81.8994 455.563 81.8994C455.133 81.8994 454.733 81.9693 454.353 82.1093C453.973 82.2493 453.643 82.4394 453.373 82.6694C453.093 82.9094 452.853 83.1793 452.653 83.4893C452.453 83.7993 452.303 84.1294 452.203 84.4694C452.103 84.8194 452.053 85.1693 452.053 85.5193C452.053 85.9593 452.133 86.3893 452.293 86.8193C452.453 87.2493 452.673 87.6394 452.943 87.9794C453.223 88.3294 453.563 88.6094 453.963 88.8394C454.363 89.0694 454.803 89.1993 455.263 89.2393C455.633 89.4793 455.813 89.7293 455.813 89.9993C455.813 90.1593 455.763 90.2793 455.653 90.3593C455.543 90.4393 455.393 90.4794 455.203 90.4794C454.983 90.4794 454.743 90.4093 454.483 90.2693L454.203 90.8693C454.583 91.0693 454.983 91.1594 455.403 91.1594C455.753 91.1594 456.033 91.0694 456.223 90.8994C456.423 90.7294 456.513 90.4893 456.513 90.1993C456.513 89.8393 456.343 89.5094 455.993 89.2194C456.533 89.1394 457.033 88.9594 457.483 88.6694C457.943 88.3794 458.263 88.0093 458.443 87.5593L457.493 87.0193C457.373 87.2893 457.203 87.5193 456.983 87.6993M463.543 81.9094L460.693 89.1694H461.913L462.673 87.1993H465.473L466.233 89.1694H467.443L464.623 81.9094H463.543ZM462.883 86.3494L464.083 83.1694L465.253 86.3494H462.883ZM462.923 80.9493C462.923 80.9493 462.953 80.8594 462.983 80.7894C463.013 80.7294 463.063 80.6693 463.133 80.6293C463.203 80.5893 463.293 80.5593 463.403 80.5593C463.523 80.5593 463.653 80.5994 463.783 80.6694C463.913 80.7394 464.063 80.8193 464.223 80.8893C464.383 80.9593 464.553 80.9993 464.723 80.9993C464.893 80.9993 465.053 80.9593 465.193 80.8893C465.333 80.8193 465.443 80.7293 465.533 80.6293C465.613 80.5293 465.683 80.4193 465.743 80.3093C465.803 80.1893 465.843 80.0893 465.863 80.0093C465.883 79.9293 465.893 79.8593 465.893 79.8193H465.253C465.253 79.8193 465.253 79.8593 465.253 79.8893C465.253 79.9193 465.233 79.9593 465.213 80.0093C465.193 80.0593 465.163 80.1094 465.123 80.1494C465.083 80.1894 465.033 80.2293 464.963 80.2593C464.893 80.2893 464.813 80.3093 464.713 80.3093C464.573 80.3093 464.443 80.2693 464.303 80.1993C464.163 80.1293 464.013 80.0494 463.863 79.9794C463.713 79.9094 463.553 79.8693 463.383 79.8693C463.223 79.8693 463.073 79.8994 462.943 79.9694C462.813 80.0394 462.703 80.1194 462.633 80.2194C462.553 80.3194 462.493 80.4194 462.433 80.5394C462.373 80.6494 462.343 80.7594 462.323 80.8394C462.303 80.9294 462.293 80.9894 462.293 81.0394H462.923C462.923 81.0394 462.923 80.9793 462.933 80.9393M476.373 84.2094C476.203 83.7694 475.973 83.3694 475.673 83.0294C475.383 82.6794 475.013 82.3993 474.573 82.1893C474.133 81.9793 473.663 81.8693 473.163 81.8693C472.663 81.8693 472.213 81.9694 471.773 82.1694C471.333 82.3694 470.963 82.6394 470.663 82.9794C470.353 83.3194 470.113 83.7094 469.933 84.1594C469.753 84.6094 469.663 85.0693 469.663 85.5493C469.663 85.9193 469.713 86.2894 469.823 86.6494C469.933 87.0094 470.083 87.3494 470.293 87.6594C470.493 87.9694 470.743 88.2394 471.013 88.4794C471.293 88.7194 471.613 88.8994 471.983 89.0394C472.353 89.1694 472.733 89.2393 473.143 89.2393C473.633 89.2393 474.093 89.1393 474.533 88.9393C474.973 88.7393 475.343 88.4693 475.643 88.1293C475.943 87.7893 476.183 87.3994 476.363 86.9594C476.543 86.5094 476.633 86.0493 476.633 85.5693C476.633 85.0893 476.553 84.6694 476.383 84.2194M475.293 86.5093C475.183 86.8193 475.043 87.1093 474.853 87.3593C474.663 87.6093 474.423 87.8094 474.123 87.9694C473.823 88.1194 473.503 88.1993 473.153 88.1993C472.693 88.1993 472.283 88.0693 471.923 87.8193C471.563 87.5693 471.293 87.2394 471.103 86.8394C470.923 86.4394 470.823 86.0093 470.823 85.5493C470.823 85.2193 470.873 84.8994 470.983 84.5894C471.093 84.2794 471.243 83.9993 471.433 83.7493C471.623 83.4993 471.873 83.2994 472.173 83.1494C472.473 82.9994 472.793 82.9194 473.153 82.9194C473.513 82.9194 473.813 82.9893 474.103 83.1393C474.393 83.2793 474.633 83.4794 474.833 83.7194C475.033 83.9594 475.183 84.2493 475.293 84.5593C475.403 84.8793 475.463 85.2093 475.463 85.5493C475.463 85.8893 475.413 86.1993 475.303 86.5093" fill="#FCF1E8"/>
<path d="M315.645 8.64975H318.135C317.915 9.24975 317.295 9.73975 316.315 9.73975C314.915 9.73975 313.945 8.72973 313.945 7.34973C313.945 5.96973 314.915 4.88974 316.275 4.88974C317.145 4.88974 317.895 5.30974 318.305 6.04974L320.425 4.78973C319.565 3.35973 318.005 2.48975 316.305 2.48975C313.615 2.48975 311.465 4.63973 311.465 7.34973C311.465 10.0597 313.605 12.1797 316.325 12.1797C318.885 12.1797 320.815 10.2997 320.815 7.41974V6.69974H315.665V8.66974L315.645 8.64975ZM329.085 2.46973C326.375 2.46973 324.225 4.61975 324.225 7.30975C324.225 9.99975 326.375 12.1497 329.085 12.1497C331.795 12.1497 333.915 9.99975 333.915 7.30975C333.915 4.61975 331.765 2.46973 329.085 2.46973ZM329.085 9.59973C327.845 9.59973 326.895 8.61973 326.895 7.31973C326.895 6.01973 327.845 5.02975 329.085 5.02975C330.325 5.02975 331.235 6.00973 331.235 7.31973C331.235 8.62973 330.295 9.59973 329.085 9.59973ZM341.095 8.38974L338.945 2.68973H336.265L339.845 11.9397H342.335L345.955 2.68973H343.275L341.095 8.38974ZM349.195 11.9397H355.815V9.67975H351.695V8.30975H354.415V6.31973H351.695V4.94974H355.815V2.68973H349.195V11.9397ZM367.345 5.68973C367.345 3.97973 365.955 2.67975 364.145 2.67975H359.675V11.9297H362.135V8.72974H363.185L365.025 11.9297H367.785L365.735 8.36975C366.715 7.84975 367.355 6.86973 367.355 5.68973M363.875 6.62973H362.135V4.89975H363.875C364.475 4.89975 364.825 5.30974 364.825 5.76974C364.825 6.22974 364.455 6.62973 363.875 6.62973ZM377.035 7.56973L373.295 2.68973H371.205V11.9397H373.665V7.06973L377.395 11.9397H379.505V2.68973H377.045V7.56973H377.035ZM387.945 2.46973C385.235 2.46973 383.085 4.61975 383.085 7.30975C383.085 9.99975 385.235 12.1497 387.945 12.1497C390.655 12.1497 392.775 9.99975 392.775 7.30975C392.775 4.61975 390.625 2.46973 387.945 2.46973ZM387.945 9.59973C386.705 9.59973 385.755 8.61973 385.755 7.31973C385.755 6.01973 386.705 5.02975 387.945 5.02975C389.185 5.02975 390.095 6.00973 390.095 7.31973C390.095 8.62973 389.155 9.59973 387.945 9.59973ZM402.485 11.9397H404.985V8.56973H407.705V6.47974H404.985V4.91974H409.105V2.69974H402.485V11.9497V11.9397ZM412.845 11.9397H419.465V9.67975H415.345V8.30975H418.065V6.31973H415.345V4.94974H419.465V2.68973H412.845V11.9397ZM427.085 2.68973H423.315V11.9397H427.085C429.905 11.9397 432.025 9.96973 432.025 7.31973C432.025 4.66973 429.905 2.69974 427.085 2.69974M426.965 9.52975H425.835V5.09973H426.965C428.435 5.09973 429.445 5.96973 429.445 7.31973C429.445 8.66973 428.435 9.53973 426.965 9.53973M435.605 11.9397H442.225V9.67975H438.105V8.30975H440.825V6.31973H438.105V4.94974H442.225V2.68973H435.605V11.9397ZM453.755 5.68973C453.755 3.97973 452.365 2.67975 450.555 2.67975H446.085V11.9297H448.545V8.72974H449.595L451.435 11.9297H454.195L452.145 8.36975C453.125 7.84975 453.765 6.86973 453.765 5.68973M450.285 6.62973H448.545V4.89975H450.285C450.885 4.89975 451.235 5.30974 451.235 5.76974C451.235 6.22974 450.865 6.62973 450.285 6.62973ZM460.785 2.68973L456.925 11.9397H459.525L460.165 10.3497H463.825L464.475 11.9397H467.055L463.155 2.68973H460.785ZM461.055 8.13974L461.975 5.86975L462.905 8.13974H461.055ZM472.925 9.55975V2.68973H470.295V11.9397H476.805V9.55975H472.915H472.925Z" fill="#FCF1E8"/>
<path d="M403.734 56.3698L411.974 70.2297H418.784V44.0297H403.724V56.3698H403.734ZM424.794 40.0996H419.664V70.2297H424.794C433.104 70.2297 439.864 63.4696 439.864 55.1596C439.864 46.8496 433.104 40.0897 424.794 40.0897M414.124 43.1797H418.794V22.3997H414.124C408.394 22.3997 403.734 27.0596 403.734 32.7896C403.734 38.5196 408.394 43.1797 414.124 43.1797ZM331.794 23.4196V50.9496H349.684L331.794 23.4196ZM460.404 53.8796H476.384V22.3997H460.404V53.8796ZM437.014 22.3896H419.654V39.2397H437.014V22.3896ZM477.244 70.2396H493.224V54.7397H477.244V70.2396ZM460.404 70.2396H476.384V54.7397H460.404V70.2396ZM440.724 70.2396H456.704V22.3997H440.724V70.2396ZM403.734 70.2396H410.974L403.734 58.0696V70.2396ZM324.484 31.7296C324.484 26.5796 320.294 22.3896 315.144 22.3896H311.674V41.0696H315.144C320.294 41.0696 324.484 36.8796 324.484 31.7296ZM294.834 41.0696H310.814V22.3896H294.834V41.0696ZM294.834 70.2396H310.814V41.9396H294.834V70.2396ZM316.774 41.9396H311.674V70.2396H316.774C324.574 70.2396 330.924 63.8897 330.924 56.0897C330.924 48.2897 324.574 41.9396 316.774 41.9396ZM358.214 64.0797L354.554 70.2396H362.224L358.224 64.0797H358.214ZM358.714 63.2496L363.254 70.2396H364.574C364.684 65.4896 366.614 61.0397 370.024 57.6897C373.454 54.3197 377.984 52.4696 382.774 52.4696C387.564 52.4696 392.094 54.3197 395.524 57.6897C398.924 61.0297 400.854 65.4896 400.974 70.2396H402.884V56.6196L382.774 22.8097L358.724 63.2496H358.714ZM364.754 36.6696C364.754 28.7996 358.354 22.3896 350.474 22.3896H332.154L350.704 50.9396C358.454 50.8196 364.744 44.4196 364.744 36.6596M382.764 53.3297C378.204 53.3297 373.894 55.0996 370.624 58.2996C367.384 61.4796 365.544 65.7197 365.434 70.2297H400.094C399.984 65.7097 398.144 61.4796 394.904 58.2996C391.644 55.0896 387.324 53.3297 382.764 53.3297ZM350.234 51.8097H331.784V70.2396H353.544L357.684 63.2797L350.234 51.8196V51.8097Z" fill="#FCF1E8"/>
<path d="M138.595 41.3498V34.3998L135.725 39.6798H134.815L131.925 34.3998V41.3498H130.385V31.5898H132.035L135.265 37.5598L138.495 31.5898H140.145V41.3498H138.585H138.595Z" fill="#FCF1E8"/>
<path d="M145.096 41.3498V31.5898H146.636V41.3498H145.096Z" fill="#FCF1E8"/>
<path d="M153.124 34.4498V41.3498H151.584V31.5898H152.844L158.374 38.6398V31.5998H159.924V41.3498H158.574L153.114 34.4498H153.124Z" fill="#FCF1E8"/>
<path d="M164.875 41.3498V31.5898H166.415V41.3498H164.875Z" fill="#FCF1E8"/>
<path d="M177.135 33.8798C176.925 33.6498 176.565 33.4198 176.065 33.2098C175.555 32.9998 175.035 32.8898 174.505 32.8898C173.865 32.8898 173.395 33.0098 173.075 33.2398C172.755 33.4698 172.605 33.8098 172.605 34.2398C172.605 34.3698 172.625 34.4898 172.655 34.5998C172.695 34.7098 172.735 34.7998 172.795 34.8898C172.855 34.9698 172.935 35.0498 173.045 35.1298C173.155 35.2098 173.265 35.2698 173.375 35.3198C173.485 35.3698 173.635 35.4298 173.825 35.4898C174.015 35.5498 174.195 35.5998 174.355 35.6398C174.525 35.6798 174.735 35.7398 175.005 35.7998C175.435 35.8998 175.805 35.9998 176.105 36.1098C176.405 36.2198 176.705 36.3398 176.985 36.4898C177.265 36.6398 177.495 36.8198 177.665 37.0098C177.835 37.1998 177.975 37.4298 178.075 37.6998C178.175 37.9698 178.225 38.2798 178.225 38.6298C178.225 39.0198 178.165 39.3698 178.045 39.6798C177.925 39.9898 177.755 40.2598 177.535 40.4698C177.325 40.6798 177.065 40.8698 176.755 41.0098C176.445 41.1498 176.125 41.2598 175.775 41.3298C175.425 41.3998 175.055 41.4298 174.645 41.4298C173.905 41.4298 173.185 41.3198 172.495 41.0898C171.805 40.8598 171.175 40.5398 170.625 40.1098L171.325 38.7898C171.605 39.0798 172.065 39.3598 172.705 39.6298C173.345 39.8998 173.995 40.0398 174.675 40.0398C175.285 40.0398 175.755 39.9298 176.085 39.7198C176.415 39.5098 176.575 39.1998 176.575 38.7898C176.575 38.6298 176.555 38.4798 176.505 38.3498C176.455 38.2198 176.375 38.0998 176.255 37.9998C176.135 37.8898 176.015 37.7998 175.885 37.7298C175.755 37.6598 175.575 37.5798 175.345 37.4898C175.115 37.4098 174.895 37.3398 174.705 37.2898C174.515 37.2398 174.245 37.1698 173.915 37.0798C173.405 36.9498 172.975 36.8098 172.635 36.6698C172.295 36.5298 172.005 36.3598 171.745 36.1598C171.485 35.9598 171.305 35.7198 171.185 35.4498C171.065 35.1698 171.015 34.8498 171.015 34.4698C171.015 33.9998 171.105 33.5798 171.285 33.1998C171.465 32.8198 171.715 32.5098 172.035 32.2598C172.355 32.0098 172.725 31.8298 173.155 31.6998C173.585 31.5698 174.055 31.5098 174.555 31.5098C175.755 31.5098 176.855 31.8798 177.855 32.6098L177.155 33.8698L177.135 33.8798Z" fill="#FCF1E8"/>
<path d="M189.665 32.9498H186.425V41.3498H184.865V32.9498H181.605V31.5898H189.655V32.9498H189.665Z" fill="#FCF1E8"/>
<path d="M200.415 39.9795V41.3395H193.725V31.5795H200.295V32.9395H195.265V35.7095H199.625V36.9895H195.265V39.9695H200.415V39.9795ZM197.685 30.5795L196.695 30.2795L197.485 28.7695H198.925L197.695 30.5795H197.685Z" fill="#FCF1E8"/>
<path d="M204.754 41.3498V31.5898H209.004C209.424 31.5898 209.834 31.6798 210.214 31.8698C210.594 32.0498 210.914 32.2898 211.174 32.5898C211.434 32.8898 211.644 33.2298 211.794 33.6098C211.944 33.9898 212.024 34.3798 212.024 34.7598C212.024 35.4198 211.854 36.0198 211.504 36.5598C211.154 37.0898 210.694 37.4498 210.124 37.6398L212.424 41.3498H210.694L208.574 37.9498H206.304V41.3498H204.764H204.754ZM206.284 36.5898H208.984C209.404 36.5898 209.764 36.4098 210.034 36.0598C210.304 35.7098 210.454 35.2698 210.454 34.7698C210.454 34.2698 210.294 33.8498 209.984 33.4898C209.674 33.1298 209.304 32.9598 208.894 32.9598H206.284V36.5998V36.5898Z" fill="#FCF1E8"/>
<path d="M216.584 41.3498V31.5898H218.124V41.3498H216.584Z" fill="#FCF1E8"/>
<path d="M222.455 36.4695C222.455 35.8295 222.575 35.1995 222.815 34.5995C223.055 33.9995 223.375 33.4695 223.795 33.0195C224.205 32.5695 224.705 32.2095 225.295 31.9295C225.885 31.6595 226.505 31.5195 227.165 31.5195C227.825 31.5195 228.475 31.6595 229.065 31.9495C229.655 32.2395 230.145 32.6095 230.545 33.0795C230.945 33.5495 231.255 34.0795 231.485 34.6695C231.715 35.2595 231.825 35.8695 231.825 36.4795C231.825 37.1195 231.705 37.7495 231.465 38.3495C231.225 38.9495 230.905 39.4795 230.495 39.9295C230.085 40.3795 229.595 40.7395 229.005 41.0095C228.415 41.2795 227.795 41.4195 227.135 41.4195C226.585 41.4195 226.075 41.3295 225.575 41.1495C225.085 40.9695 224.645 40.7195 224.275 40.3995C223.905 40.0795 223.575 39.7195 223.305 39.2995C223.025 38.8795 222.825 38.4295 222.675 37.9495C222.525 37.4695 222.465 36.9695 222.465 36.4795L222.455 36.4695ZM227.135 40.0195C227.605 40.0195 228.045 39.9195 228.445 39.7095C228.845 39.4995 229.165 39.2295 229.425 38.8895C229.685 38.5495 229.875 38.1695 230.015 37.7495C230.155 37.3295 230.225 36.8995 230.225 36.4495C230.225 35.9995 230.145 35.5495 230.005 35.1195C229.855 34.6895 229.645 34.3095 229.385 33.9895C229.125 33.6695 228.795 33.3995 228.405 33.1995C228.015 33.0095 227.585 32.9095 227.135 32.9095C226.685 32.9095 226.225 33.0095 225.825 33.2195C225.425 33.4195 225.095 33.6895 224.835 34.0295C224.575 34.3695 224.375 34.7395 224.235 35.1595C224.095 35.5795 224.025 36.0095 224.025 36.4595C224.025 37.0795 224.145 37.6495 224.395 38.1895C224.645 38.7295 225.005 39.1695 225.495 39.5095C225.985 39.8495 226.525 40.0195 227.145 40.0195H227.135Z" fill="#FCF1E8"/>
<path d="M242.295 41.3498V31.5898H245.755C246.525 31.5898 247.205 31.7198 247.815 31.9698C248.425 32.2198 248.925 32.5698 249.315 33.0198C249.705 33.4698 250.005 33.9798 250.205 34.5598C250.405 35.1398 250.515 35.7798 250.515 36.4598C250.515 37.9398 250.085 39.1198 249.215 40.0098C248.345 40.8998 247.195 41.3498 245.755 41.3498H242.295ZM245.755 32.9498H243.825V39.9798H245.755C246.425 39.9798 247.005 39.8198 247.485 39.5098C247.975 39.1998 248.335 38.7798 248.575 38.2498C248.815 37.7198 248.935 37.1198 248.935 36.4398C248.935 35.3998 248.655 34.5498 248.085 33.9098C247.515 33.2598 246.735 32.9398 245.745 32.9398L245.755 32.9498Z" fill="#FCF1E8"/>
<path d="M257.346 31.5898H258.806L262.596 41.3498H260.976L259.946 38.6998H256.176L255.156 41.3498H253.516L257.346 31.5898ZM259.646 37.5498L258.076 33.2698L256.456 37.5498H259.646Z" fill="#FCF1E8"/>
<path d="M187.826 50.8301C188.746 50.8301 189.556 51.0201 190.256 51.4101C190.956 51.7901 191.486 52.3101 191.826 52.9601L189.776 54.4201C189.686 54.1901 189.566 54.0001 189.416 53.8301C189.266 53.6701 189.096 53.5401 188.906 53.4501C188.716 53.3601 188.536 53.3001 188.346 53.2601C188.156 53.2201 187.966 53.2001 187.776 53.2001C187.406 53.2001 187.076 53.2701 186.786 53.4201C186.496 53.5701 186.266 53.7701 186.096 54.0201C185.926 54.2701 185.796 54.5401 185.706 54.8401C185.616 55.1401 185.576 55.4401 185.576 55.7601C185.576 56.4701 185.776 57.0801 186.186 57.5901C186.596 58.1001 187.136 58.3501 187.806 58.3501C188.066 58.3501 188.326 58.3101 188.566 58.2401C188.806 58.1701 189.036 58.0401 189.256 57.8501C189.476 57.6601 189.636 57.4301 189.746 57.1601L191.936 58.4601C191.756 58.9201 191.436 59.3301 190.976 59.6801C190.516 60.0301 190.006 60.3001 189.446 60.4701C188.886 60.6401 188.326 60.7301 187.756 60.7301C187.056 60.7301 186.396 60.5801 185.776 60.2901C185.156 60.0001 184.636 59.6201 184.216 59.1501C183.796 58.6801 183.456 58.1401 183.216 57.5301C182.976 56.9201 182.846 56.3101 182.846 55.6901C182.846 55.0701 182.966 54.5001 183.196 53.9301C183.426 53.3601 183.746 52.8401 184.166 52.3801C184.586 51.9201 185.106 51.5501 185.746 51.2701C186.386 50.9901 187.086 50.8501 187.836 50.8501L187.826 50.8301Z" fill="#FCF1E8"/>
<path d="M199.877 60.7199C199.267 60.7199 198.717 60.6299 198.227 60.4599C197.737 60.2899 197.317 60.0599 196.977 59.7599C196.637 59.4599 196.357 59.1099 196.127 58.6999C195.897 58.2899 195.737 57.8499 195.627 57.3799C195.517 56.9099 195.477 56.4099 195.477 55.8899V50.8799H198.157V55.8899C198.157 56.2299 198.187 56.5399 198.257 56.8199C198.317 57.1099 198.417 57.3599 198.557 57.5999C198.687 57.8299 198.867 58.0099 199.097 58.1399C199.327 58.2699 199.587 58.3399 199.887 58.3399C200.187 58.3399 200.457 58.2699 200.687 58.1399C200.917 58.0099 201.097 57.8199 201.227 57.5899C201.357 57.3599 201.457 57.0999 201.527 56.8099C201.587 56.5299 201.627 56.2199 201.627 55.8899V50.8799H204.307V55.8899C204.307 56.5799 204.217 57.2199 204.037 57.7999C203.857 58.3799 203.597 58.8899 203.237 59.3199C202.887 59.7599 202.427 60.0999 201.857 60.3499C201.287 60.5999 200.637 60.7199 199.897 60.7199H199.877Z" fill="#FCF1E8"/>
<path d="M208.576 60.6399V50.8799H211.256V58.2999H215.686V60.6399H208.576Z" fill="#FCF1E8"/>
<path d="M225.655 53.2199H222.855V60.6399H220.175V53.2199H217.355V50.8799H225.655V53.2199Z" fill="#FCF1E8"/>
<path d="M233.636 60.7199C233.026 60.7199 232.476 60.6299 231.986 60.4599C231.496 60.2899 231.076 60.0599 230.736 59.7599C230.396 59.4599 230.116 59.1099 229.886 58.6999C229.656 58.2899 229.496 57.8499 229.386 57.3799C229.276 56.9099 229.236 56.4099 229.236 55.8899V50.8799H231.916V55.8899C231.916 56.2299 231.946 56.5399 232.016 56.8199C232.076 57.1099 232.176 57.3599 232.316 57.5999C232.446 57.8299 232.626 58.0099 232.856 58.1399C233.086 58.2699 233.346 58.3399 233.646 58.3399C233.946 58.3399 234.216 58.2699 234.446 58.1399C234.676 58.0099 234.856 57.8199 234.986 57.5899C235.116 57.3599 235.216 57.0999 235.286 56.8099C235.346 56.5299 235.386 56.2199 235.386 55.8899V50.8799H238.066V55.8899C238.066 56.5799 237.976 57.2199 237.796 57.7999C237.616 58.3799 237.356 58.8899 236.996 59.3199C236.646 59.7599 236.186 60.0999 235.616 60.3499C235.046 60.5999 234.396 60.7199 233.656 60.7199H233.636Z" fill="#FCF1E8"/>
<path d="M242.336 60.6399V50.8799H246.816C247.276 50.8799 247.716 50.9799 248.136 51.1799C248.556 51.3799 248.906 51.6299 249.186 51.9499C249.466 52.2699 249.696 52.6299 249.856 53.0299C250.026 53.4299 250.106 53.8499 250.106 54.2599C250.106 54.8199 249.986 55.3499 249.736 55.8399C249.486 56.3299 249.146 56.7299 248.706 57.0399L250.766 60.6299H247.826L246.106 57.6399H245.016V60.6299H242.336V60.6399ZM245.016 55.2999H246.706C246.876 55.2999 247.036 55.1999 247.176 55.0099C247.316 54.8199 247.386 54.5699 247.386 54.2499C247.386 53.9299 247.306 53.6799 247.156 53.4899C246.996 53.2999 246.826 53.1999 246.646 53.1999H245.026V55.2899L245.016 55.2999Z" fill="#FCF1E8"/>
<path d="M256.616 50.8799H259.606L262.716 60.6399H259.996L259.406 58.7299H256.806L256.226 60.6399H253.496L256.616 50.8799ZM258.976 56.9399L258.106 53.4999L257.196 56.9399H258.966H258.976Z" fill="#FCF1E8"/>
<path d="M30.4141 51.2006V42.8506H31.2441V50.4706H36.0641V51.2006H30.4241H30.4141Z" fill="#FCF1E8"/>
<path d="M42.8756 50.4706V51.2006H37.2656V42.8506H42.7656V43.5806H38.0856V46.5906H42.1656V47.2806H38.0856V50.4706H42.8656H42.8756Z" fill="#FCF1E8"/>
<path d="M44.4238 51.2006V42.8506H45.2538V51.2006H44.4238Z" fill="#FCF1E8"/>
<path d="M30.0957 63.601V55.251H33.6957C34.0857 55.251 34.4657 55.331 34.8257 55.501C35.1857 55.671 35.4757 55.891 35.7257 56.161C35.9657 56.431 36.1557 56.741 36.2957 57.091C36.4357 57.441 36.5057 57.791 36.5057 58.141C36.5057 58.491 36.4357 58.871 36.3057 59.221C36.1757 59.571 35.9857 59.881 35.7557 60.141C35.5157 60.411 35.2257 60.621 34.8757 60.791C34.5257 60.951 34.1557 61.031 33.7557 61.031H32.3857V63.591H30.0957V63.601ZM32.3857 59.031H33.5957C33.7557 59.031 33.8957 58.961 34.0057 58.821C34.1157 58.681 34.1757 58.451 34.1757 58.141C34.1757 57.831 34.1157 57.601 33.9857 57.461C33.8557 57.321 33.7057 57.251 33.5457 57.251H32.3957V59.041L32.3857 59.031Z" fill="#FCF1E8"/>
<path d="M39.3341 55.251H41.8941L44.5541 63.601H42.2341L41.7241 61.961H39.4941L39.0041 63.601H36.6641L39.3341 55.251ZM41.3541 60.431L40.6141 57.491L39.8441 60.431H41.3641H41.3541Z" fill="#FCF1E8"/>
<path d="M48.8948 63.6703C48.3748 63.6703 47.9048 63.6002 47.4848 63.4502C47.0648 63.3002 46.7048 63.1103 46.4148 62.8503C46.1248 62.6003 45.8848 62.3002 45.6848 61.9402C45.4848 61.5902 45.3448 61.2102 45.2648 60.8102C45.1748 60.4102 45.1348 59.9802 45.1348 59.5302V55.2402H47.4348V59.5302C47.4348 59.8202 47.4648 60.0802 47.5148 60.3302C47.5748 60.5702 47.6548 60.8002 47.7648 60.9902C47.8748 61.1902 48.0348 61.3402 48.2248 61.4502C48.4148 61.5602 48.6448 61.6202 48.8948 61.6202C49.1448 61.6202 49.3848 61.5602 49.5748 61.4502C49.7648 61.3402 49.9248 61.1803 50.0348 60.9803C50.1448 60.7803 50.2348 60.5602 50.2848 60.3102C50.3448 60.0702 50.3648 59.8102 50.3648 59.5302V55.2402H52.6548V59.5302C52.6548 60.1202 52.5748 60.6702 52.4248 61.1602C52.2748 61.6502 52.0448 62.0902 51.7448 62.4602C51.4448 62.8402 51.0548 63.1302 50.5648 63.3402C50.0748 63.5502 49.5148 63.6602 48.8848 63.6602L48.8948 63.6703Z" fill="#FCF1E8"/>
<path d="M53.9844 63.601V55.251H56.2744V61.601H60.0644V63.601H53.9844Z" fill="#FCF1E8"/>
<path d="M60.3945 59.4105C60.3945 58.8605 60.5045 58.3304 60.7145 57.8204C60.9245 57.3104 61.2245 56.8605 61.5945 56.4705C61.9645 56.0805 62.4145 55.7704 62.9545 55.5404C63.4845 55.3104 64.0545 55.1904 64.6645 55.1904C65.2745 55.1904 65.8545 55.3104 66.3845 55.5504C66.9245 55.7904 67.3645 56.1104 67.7245 56.5104C68.0845 56.9104 68.3645 57.3604 68.5645 57.8704C68.7645 58.3804 68.8745 58.9004 68.8745 59.4304C68.8745 59.9604 68.7645 60.5004 68.5545 61.0104C68.3445 61.5204 68.0545 61.9704 67.6845 62.3604C67.3145 62.7504 66.8645 63.0605 66.3245 63.2905C65.7845 63.5205 65.2145 63.6404 64.6145 63.6404C64.0145 63.6404 63.4245 63.5205 62.8945 63.2805C62.3645 63.0405 61.9145 62.7204 61.5545 62.3204C61.1945 61.9204 60.9145 61.4704 60.7045 60.9604C60.4945 60.4504 60.3945 59.9304 60.3945 59.3904V59.4105ZM64.6445 61.6304C64.9645 61.6304 65.2445 61.5704 65.4945 61.4404C65.7445 61.3104 65.9445 61.1404 66.0945 60.9304C66.2445 60.7204 66.3545 60.4805 66.4345 60.2205C66.5145 59.9605 66.5445 59.6905 66.5445 59.4105C66.5445 59.0205 66.4745 58.6605 66.3445 58.3405C66.2045 58.0205 65.9945 57.7505 65.6945 57.5405C65.3945 57.3305 65.0445 57.2305 64.6345 57.2305C64.3145 57.2305 64.0345 57.2905 63.7845 57.4205C63.5345 57.5505 63.3345 57.7104 63.1845 57.9304C63.0345 58.1404 62.9245 58.3704 62.8445 58.6304C62.7645 58.8904 62.7345 59.1504 62.7345 59.4304C62.7345 59.7104 62.7745 59.9904 62.8545 60.2504C62.9345 60.5104 63.0445 60.7404 63.2045 60.9504C63.3545 61.1604 63.5545 61.3204 63.8045 61.4504C64.0545 61.5704 64.3345 61.6304 64.6445 61.6304Z" fill="#FCF1E8"/>
<path d="M34.2148 71.5605H37.6448V76.0005H35.7548V75.3105C35.1648 75.8105 34.4848 76.0605 33.6948 76.0605C33.1448 76.0605 32.6348 75.9606 32.1448 75.7606C31.6548 75.5606 31.2248 75.2905 30.8548 74.9305C30.4848 74.5705 30.1848 74.1206 29.9648 73.5706C29.7448 73.0206 29.6348 72.4206 29.6348 71.7606C29.6348 71.1806 29.7448 70.6405 29.9648 70.1205C30.1848 69.6105 30.4848 69.1705 30.8648 68.8005C31.2448 68.4305 31.6948 68.1406 32.2248 67.9206C32.7548 67.7006 33.3148 67.6006 33.9048 67.6006C34.6548 67.6006 35.3448 67.7606 35.9448 68.0906C36.5548 68.4206 37.0048 68.8606 37.3048 69.4206L35.6048 70.7206C35.4448 70.3906 35.1948 70.1305 34.8648 69.9305C34.5348 69.7305 34.1848 69.6306 33.8148 69.6306C33.2748 69.6306 32.8248 69.8405 32.4748 70.2505C32.1248 70.6605 31.9448 71.1906 31.9448 71.8406C31.9448 72.4906 32.1248 73.0206 32.4748 73.4206C32.8248 73.8206 33.2948 74.0206 33.8648 74.0206C34.5148 74.0206 35.1048 73.7506 35.6348 73.2006H34.1848V71.5505L34.2148 71.5605Z" fill="#FCF1E8"/>
<path d="M42.4241 76.0706C41.9041 76.0706 41.4341 76.0006 41.0141 75.8506C40.5941 75.7006 40.2341 75.5106 39.9441 75.2506C39.6541 75.0006 39.4141 74.7006 39.2141 74.3406C39.0141 73.9906 38.8741 73.6106 38.7941 73.2106C38.7041 72.8106 38.6641 72.3806 38.6641 71.9306V67.6406H40.9641V71.9306C40.9641 72.2206 40.9941 72.4807 41.0441 72.7307C41.1041 72.9707 41.1841 73.2006 41.2941 73.3906C41.4041 73.5906 41.5641 73.7406 41.7541 73.8506C41.9441 73.9606 42.1741 74.0206 42.4241 74.0206C42.6741 74.0206 42.9141 73.9606 43.1041 73.8506C43.2941 73.7406 43.4541 73.5806 43.5641 73.3806C43.6741 73.1806 43.7641 72.9606 43.8141 72.7106C43.8741 72.4706 43.8941 72.2106 43.8941 71.9306V67.6406H46.1841V71.9306C46.1841 72.5206 46.1041 73.0706 45.9541 73.5606C45.8041 74.0506 45.5741 74.4906 45.2741 74.8606C44.9741 75.2406 44.5841 75.5306 44.0941 75.7406C43.6041 75.9506 43.0441 76.0606 42.4141 76.0606L42.4241 76.0706Z" fill="#FCF1E8"/>
<path d="M52.5656 70.3803C52.5656 70.3803 52.4856 70.3303 52.4256 70.3003C52.3656 70.2703 52.2556 70.2003 52.0756 70.1203C51.8956 70.0303 51.7256 69.9503 51.5556 69.8903C51.3856 69.8203 51.1955 69.7603 50.9655 69.7103C50.7455 69.6503 50.5356 69.6303 50.3456 69.6303C49.8956 69.6303 49.6756 69.7703 49.6756 70.0403C49.6756 70.1003 49.6856 70.1603 49.7056 70.2103C49.7256 70.2603 49.7656 70.3103 49.8156 70.3503C49.8656 70.3903 49.9256 70.4303 49.9756 70.4603C50.0256 70.4903 50.1055 70.5303 50.2155 70.5603C50.3255 70.6003 50.4156 70.6303 50.4956 70.6503C50.5756 70.6703 50.6856 70.7103 50.8456 70.7603C51.0056 70.8103 51.1356 70.8503 51.2256 70.8803C51.5656 70.9803 51.8456 71.0803 52.0856 71.1803C52.3256 71.2803 52.5456 71.4003 52.7756 71.5403C52.9956 71.6803 53.1756 71.8403 53.3056 72.0103C53.4356 72.1803 53.5455 72.3903 53.6255 72.6303C53.7055 72.8703 53.7456 73.1503 53.7456 73.4503C53.7456 73.8403 53.6856 74.1803 53.5656 74.4903C53.4456 74.8003 53.2856 75.0503 53.0756 75.2503C52.8756 75.4503 52.6356 75.6103 52.3556 75.7403C52.0756 75.8703 51.7856 75.9603 51.4956 76.0203C51.2056 76.0803 50.8956 76.1003 50.5656 76.1003C49.9656 76.1003 49.3356 76.0103 48.6756 75.8303C48.0156 75.6503 47.4355 75.4203 46.9355 75.1203L47.9256 73.1103C47.9256 73.1103 48.0156 73.1703 48.0856 73.2103C48.1556 73.2503 48.2856 73.3203 48.4956 73.4303C48.7056 73.5403 48.9056 73.6303 49.1156 73.7103C49.3156 73.7903 49.5556 73.8603 49.8356 73.9303C50.1156 74.0003 50.3656 74.0303 50.6056 74.0303C51.0456 74.0303 51.2756 73.9103 51.2756 73.6603C51.2756 73.5703 51.2455 73.4903 51.1855 73.4203C51.1255 73.3503 51.0356 73.2803 50.8956 73.2203C50.7656 73.1603 50.6356 73.1103 50.5056 73.0703C50.3856 73.0303 50.2056 72.9803 49.9756 72.9103C49.7456 72.8403 49.5555 72.7803 49.4055 72.7303C48.6555 72.4803 48.1156 72.1703 47.7856 71.8203C47.4556 71.4703 47.2856 70.9903 47.2856 70.3903C47.2856 69.9403 47.3756 69.5403 47.5456 69.1703C47.7156 68.8103 47.9456 68.5103 48.2356 68.2803C48.5256 68.0503 48.8556 67.8703 49.2256 67.7503C49.5956 67.6303 49.9955 67.5703 50.4055 67.5703C51.2955 67.5703 52.3356 67.8703 53.5356 68.4703L52.5456 70.3603L52.5656 70.3803Z" fill="#FCF1E8"/>
<path d="M61.2543 69.6504H58.8643V76.0004H56.5643V69.6504H54.1543V67.6504H61.2543V69.6504Z" fill="#FCF1E8"/>
<path d="M64.0157 67.6504H66.5757L69.2357 76.0004H66.9157L66.4057 74.3604H64.1757L63.6857 76.0004H61.3457L64.0157 67.6504ZM66.0357 72.8404L65.2957 69.9004L64.5257 72.8404H66.0457H66.0357Z" fill="#FCF1E8"/>
<path d="M71.5452 67.6504L73.1752 73.3504L74.7852 67.6504H77.1952L74.3152 76.0004H72.0352L69.1152 67.6504H71.5352H71.5452Z" fill="#FCF1E8"/>
<path d="M77.3652 71.8108C77.3652 71.2608 77.4752 70.7308 77.6852 70.2208C77.8952 69.7108 78.1952 69.2608 78.5652 68.8708C78.9352 68.4808 79.3852 68.1708 79.9252 67.9408C80.4552 67.7108 81.0252 67.5908 81.6352 67.5908C82.2452 67.5908 82.8252 67.7108 83.3552 67.9508C83.8952 68.1908 84.3352 68.5108 84.6952 68.9108C85.0552 69.3108 85.3352 69.7608 85.5352 70.2708C85.7352 70.7808 85.8452 71.3008 85.8452 71.8308C85.8452 72.3608 85.7352 72.9008 85.5252 73.4108C85.3152 73.9208 85.0252 74.3708 84.6552 74.7608C84.2852 75.1508 83.8352 75.4608 83.2952 75.6908C82.7552 75.9208 82.1852 76.0408 81.5852 76.0408C80.9852 76.0408 80.3952 75.9208 79.8652 75.6808C79.3352 75.4408 78.8852 75.1208 78.5252 74.7208C78.1652 74.3208 77.8852 73.8708 77.6752 73.3608C77.4652 72.8508 77.3652 72.3308 77.3652 71.7908V71.8108ZM81.6052 74.0408C81.9252 74.0408 82.2052 73.9808 82.4552 73.8508C82.7052 73.7208 82.9052 73.5508 83.0552 73.3408C83.2052 73.1308 83.3152 72.8908 83.3952 72.6308C83.4752 72.3708 83.5052 72.1008 83.5052 71.8208C83.5052 71.4308 83.4352 71.0708 83.3052 70.7508C83.1652 70.4308 82.9552 70.1608 82.6552 69.9508C82.3552 69.7408 82.0052 69.6408 81.5952 69.6408C81.2752 69.6408 80.9952 69.7008 80.7452 69.8308C80.4952 69.9608 80.2952 70.1208 80.1452 70.3408C79.9952 70.5508 79.8852 70.7808 79.8052 71.0408C79.7252 71.3008 79.6952 71.5608 79.6952 71.8408C79.6952 72.1208 79.7352 72.4008 79.8152 72.6608C79.8952 72.9208 80.0052 73.1508 80.1652 73.3608C80.3152 73.5708 80.5152 73.7308 80.7652 73.8608C81.0152 73.9808 81.2952 74.0408 81.6052 74.0408Z" fill="#FCF1E8"/>
<path d="M9.36486 61.9107C10.6249 59.4807 9.66486 56.4806 7.23486 55.2306C4.80486 53.9706 1.80486 54.9306 0.554863 57.3606C-0.705137 59.7906 0.254838 62.7907 2.68484 64.0407C5.11484 65.3007 8.11486 64.3407 9.36486 61.9107Z" fill="#FCF1E8"/>
<path d="M10.2843 50.7708C11.7343 53.6508 12.4243 56.8807 12.2543 60.1907C12.0443 64.2807 10.5543 68.1007 7.98428 71.2007C6.96428 72.4307 6.98427 74.2208 8.06427 75.4108C9.37427 76.8608 11.6643 76.8107 12.9143 75.3007C16.3643 71.1407 18.3743 66.0108 18.6543 60.5208C18.8643 56.3208 18.0443 52.2207 16.3043 48.5107" fill="#FCF1E8"/>
<path d="M10.2852 50.7708C12.3852 50.2808 14.4052 49.5207 16.3152 48.5107L10.2852 50.7708Z" fill="#FCF1E8"/>
<path d="M13.834 39.3508C16.444 38.5208 17.884 35.7308 17.054 33.1208C16.224 30.5108 13.434 29.0708 10.824 29.9008C8.21396 30.7308 6.77396 33.5208 7.60396 36.1308C8.43396 38.7408 11.224 40.1808 13.834 39.3508Z" fill="#FCF1E8"/>
<path d="M32.6939 26.4904C35.1039 27.8004 38.114 26.9103 39.424 24.5003C40.734 22.0903 39.8439 19.0804 37.4339 17.7704C35.0239 16.4604 32.014 17.3504 30.704 19.7604C29.394 22.1704 30.2839 25.1804 32.6939 26.4904Z" fill="#FCF1E8"/>
<path d="M43.6953 29.4805C44.1853 30.1605 44.6953 30.8105 45.2453 31.4305C44.6953 30.8105 44.1753 30.1605 43.6953 29.4805Z" fill="#FCF1E8"/>
<path d="M29.2944 30.4404C29.2944 30.6704 29.2844 30.9105 29.2344 31.1505C29.2844 30.9105 29.3044 30.6704 29.2944 30.4404Z" fill="#FCF1E8"/>
<path d="M45.2449 31.4402C44.6949 30.8202 44.1749 30.1702 43.6949 29.4902C43.5349 29.2602 43.3749 29.0402 43.2249 28.8102C43.0749 28.5802 42.9149 28.3502 42.7749 28.1102C40.1449 29.1802 37.2849 29.6402 34.3649 29.4302C30.2849 29.1402 26.4949 27.5602 23.4549 24.9302C22.2449 23.8802 20.4549 23.8702 19.2449 24.9202C17.7649 26.2002 17.7749 28.4902 19.2449 29.7702C20.2349 30.6202 21.2749 31.3902 22.3649 32.0702C22.3649 32.0702 22.3649 32.0402 22.3749 32.0302C22.5949 31.3402 22.7949 30.6402 22.9349 29.9202C23.0549 29.3302 23.3249 28.8102 23.6949 28.3902C23.7849 28.2902 23.8849 28.1902 23.9949 28.1002C24.1149 27.9902 24.2549 27.9002 24.3949 27.8102C24.9349 27.4702 25.5749 27.2902 26.2449 27.3202C26.9749 27.3602 27.6349 27.6402 28.1449 28.0702C28.3149 28.2102 28.4749 28.3802 28.6049 28.5502C28.6749 28.6402 28.7349 28.7302 28.7949 28.8202C29.0349 29.2002 29.1949 29.6302 29.2549 30.0902C29.2749 30.2002 29.2749 30.3202 29.2849 30.4402C29.2849 30.6702 29.2749 30.9102 29.2249 31.1502C29.1949 31.3002 29.1549 31.4602 29.1249 31.6102C28.8949 32.6802 28.5949 33.7302 28.2249 34.7502C30.0449 35.3102 31.9349 35.6702 33.8849 35.8102C38.4749 36.1402 42.9649 35.2302 46.9749 33.2202C46.3649 32.6502 45.7849 32.0602 45.2349 31.4302L45.2449 31.4402Z" fill="#FCF1E8"/>
<path d="M25.2151 33.6003C24.2351 33.1503 23.2852 32.6403 22.3652 32.0703C21.3552 35.1503 19.5752 37.9403 17.1052 40.1803C14.0652 42.9203 10.3052 44.5703 6.30517 44.9503C4.71517 45.1003 3.46516 46.3803 3.38516 47.9803C3.28516 49.9303 4.94516 51.5203 6.89516 51.3303C8.04516 51.2203 9.17515 51.0303 10.2851 50.7703C9.94515 50.0903 9.56516 49.4403 9.13516 48.8003C8.24516 47.4703 8.45516 45.6903 9.63516 44.6203C11.0852 43.3103 13.3652 43.6003 14.4552 45.2203C15.1552 46.2703 15.7752 47.3703 16.3052 48.5003C18.1152 47.5303 19.8252 46.3403 21.3952 44.9303C24.5252 42.1003 26.8552 38.6103 28.2352 34.7503C27.4552 34.5103 26.6952 34.2303 25.9552 33.9203C25.7052 33.8203 25.4551 33.7103 25.2151 33.6003Z" fill="#FCF1E8"/>
<path d="M26.2543 27.3206C25.5743 27.2906 24.9343 27.4706 24.4043 27.8106C24.9443 27.4706 25.5843 27.2906 26.2543 27.3206Z" fill="#FCF1E8"/>
<path d="M24.0059 28.1005C24.1259 27.9905 24.2659 27.9005 24.4059 27.8105C24.2659 27.9005 24.1359 27.9905 24.0059 28.1005Z" fill="#FCF1E8"/>
<path d="M70.845 35.4902C70.355 33.9702 68.825 33.0502 67.245 33.3102C63.285 33.9702 59.225 33.3502 55.585 31.4802C51.945 29.6102 49.075 26.6802 47.305 23.0702C46.605 21.6302 44.955 20.9202 43.435 21.4102C41.575 22.0102 40.675 24.1202 41.535 25.8802C41.905 26.6402 42.325 27.3802 42.765 28.1002C43.815 27.6702 44.835 27.1502 45.805 26.5302C47.155 25.6702 48.925 25.9102 49.975 27.1202C51.255 28.6002 50.925 30.8702 49.275 31.9202C48.535 32.3902 47.775 32.8202 46.995 33.2102C48.675 34.7602 50.565 36.1002 52.655 37.1702C57.545 39.6802 62.995 40.5202 68.315 39.6202C70.245 39.2902 71.445 37.3402 70.845 35.4802V35.4902Z" fill="#FCF1E8"/>
<path d="M45.2461 31.4404C45.7961 32.0604 46.3761 32.6604 46.9861 33.2304C46.3761 32.6604 45.7961 32.0704 45.2461 31.4404Z" fill="#FCF1E8"/>
<path d="M62.1653 28.9399C64.3153 27.2399 64.6753 24.1199 62.9653 21.9699C61.2653 19.8199 58.1453 19.4599 55.9953 21.1699C53.8453 22.8699 53.4853 25.9899 55.1953 28.1399C56.8953 30.2899 60.0153 30.6499 62.1653 28.9399Z" fill="#FCF1E8"/>
<path d="M108.125 0V93.62" stroke="#FCF1E8" stroke-width="2.3" stroke-miterlimit="10"/>
</g>
<defs>
<clipPath id="clip0_196_130">
<rect width="494" height="94" fill="white"/>
</clipPath>
</defs>
</svg>
