<svg width="820" height="156" viewBox="0 0 820 156" fill="none" xmlns="http://www.w3.org/2000/svg">
<path d="M526.358 142.2C526.358 142.65 526.328 143.08 526.258 143.48C526.198 143.88 526.078 144.27 525.918 144.65C525.758 145.03 525.558 145.35 525.308 145.62C525.068 145.89 524.748 146.11 524.368 146.27C523.978 146.43 523.548 146.51 523.048 146.51C522.548 146.51 522.128 146.43 521.748 146.27C521.368 146.11 521.058 145.9 520.808 145.63C520.568 145.36 520.358 145.04 520.198 144.67C520.038 144.29 519.918 143.9 519.858 143.5C519.788 143.09 519.758 142.66 519.758 142.2V136.08H517.848V142.2C517.848 142.85 517.908 143.46 518.018 144.03C518.128 144.6 518.318 145.15 518.578 145.67C518.838 146.19 519.168 146.64 519.558 147.01C519.948 147.38 520.448 147.68 521.038 147.9C521.628 148.12 522.308 148.23 523.048 148.23C523.948 148.23 524.738 148.07 525.428 147.76C526.108 147.44 526.658 147.01 527.068 146.44C527.478 145.88 527.778 145.24 527.978 144.53C528.178 143.82 528.278 143.04 528.278 142.19V136.07H526.358V142.19V142.2ZM542.608 144.81L535.768 136.09H534.208V148.16H536.108V139.63L542.858 148.16H544.528V136.11H542.608V144.81ZM550.638 148.15H552.538V136.08H550.638V148.15ZM562.138 136.08L557.408 148.15H559.428L560.688 144.87H565.338L566.608 148.15H568.618L563.928 136.08H562.128H562.138ZM561.038 143.46L563.038 138.17L564.978 143.46H561.038ZM561.118 134.48C561.138 134.41 561.168 134.32 561.218 134.21C561.268 134.1 561.358 134.01 561.478 133.94C561.598 133.87 561.748 133.83 561.928 133.83C562.128 133.83 562.338 133.89 562.558 134.01C562.778 134.13 563.028 134.25 563.288 134.38C563.558 134.5 563.828 134.56 564.128 134.56C564.428 134.56 564.668 134.5 564.908 134.38C565.148 134.26 565.328 134.12 565.468 133.95C565.608 133.78 565.728 133.6 565.818 133.41C565.918 133.22 565.978 133.05 566.018 132.91C566.058 132.77 566.068 132.67 566.068 132.59H564.998C564.998 132.59 564.998 132.66 564.988 132.71C564.988 132.76 564.958 132.83 564.918 132.91C564.878 133 564.828 133.07 564.768 133.15C564.708 133.22 564.618 133.29 564.498 133.34C564.378 133.4 564.238 133.42 564.088 133.42C563.858 133.42 563.628 133.36 563.398 133.23C563.168 133.11 562.918 132.98 562.668 132.86C562.418 132.74 562.148 132.67 561.868 132.67C561.598 132.67 561.358 132.73 561.138 132.84C560.918 132.95 560.748 133.09 560.618 133.26C560.488 133.42 560.378 133.6 560.288 133.79C560.198 133.98 560.138 134.15 560.098 134.29C560.068 134.43 560.048 134.55 560.048 134.63H561.098C561.098 134.63 561.098 134.54 561.118 134.47M582.288 137.93C581.798 137.35 581.188 136.89 580.458 136.53C579.728 136.18 578.948 136 578.108 136C577.268 136 576.528 136.17 575.798 136.51C575.068 136.85 574.458 137.3 573.948 137.85C573.438 138.41 573.038 139.06 572.738 139.8C572.438 140.54 572.298 141.31 572.298 142.11C572.298 142.72 572.388 143.33 572.568 143.93C572.748 144.53 573.008 145.09 573.348 145.6C573.688 146.11 574.088 146.57 574.548 146.96C575.008 147.35 575.548 147.66 576.158 147.89C576.768 148.11 577.408 148.23 578.088 148.23C578.898 148.23 579.668 148.06 580.398 147.73C581.118 147.4 581.738 146.95 582.238 146.39C582.738 145.83 583.138 145.18 583.438 144.44C583.738 143.7 583.878 142.93 583.878 142.13C583.878 141.33 583.738 140.63 583.458 139.89C583.178 139.16 582.788 138.5 582.298 137.92M581.658 143.72C581.488 144.24 581.238 144.71 580.928 145.13C580.618 145.55 580.208 145.88 579.718 146.14C579.228 146.39 578.688 146.52 578.098 146.52C577.338 146.52 576.658 146.31 576.058 145.89C575.458 145.47 575.008 144.93 574.698 144.26C574.388 143.6 574.238 142.88 574.238 142.12C574.238 141.57 574.328 141.04 574.508 140.52C574.688 140 574.938 139.53 575.258 139.12C575.578 138.71 575.988 138.37 576.478 138.12C576.978 137.87 577.518 137.74 578.098 137.74C578.678 137.74 579.188 137.86 579.668 138.1C580.148 138.34 580.558 138.66 580.878 139.07C581.198 139.48 581.458 139.94 581.638 140.47C581.818 141 581.918 141.55 581.918 142.12C581.918 142.69 581.828 143.2 581.658 143.72ZM598.718 142.78H604.108V141.2H598.718V137.77H604.938V136.09H596.818V148.16H605.088V146.48H598.718V142.8V142.78ZM626.368 142.23C626.798 141.57 627.018 140.83 627.018 140.01C627.018 139.53 626.928 139.05 626.738 138.58C626.548 138.11 626.298 137.69 625.978 137.32C625.658 136.95 625.258 136.65 624.788 136.42C624.318 136.19 623.818 136.08 623.288 136.08H618.038V148.15H619.938V143.95H622.748L625.368 148.15H627.508L624.668 143.56C625.378 143.33 625.948 142.89 626.378 142.23M623.258 142.27H619.918V137.77H623.148C623.658 137.77 624.108 137.99 624.488 138.43C624.878 138.87 625.068 139.4 625.068 140.01C625.068 140.62 624.898 141.17 624.558 141.61C624.218 142.05 623.778 142.27 623.258 142.27ZM634.548 142.78H639.938V141.2H634.548V137.77H640.768V136.09H632.648V148.16H640.918V146.48H634.548V142.8V142.78ZM653.478 145.68C653.108 145.99 652.728 146.21 652.328 146.34C651.928 146.47 651.528 146.53 651.108 146.53C650.378 146.53 649.708 146.32 649.108 145.91C648.508 145.5 648.038 144.95 647.708 144.28C647.378 143.6 647.218 142.88 647.218 142.1C647.218 141.67 647.268 141.25 647.368 140.84C647.468 140.42 647.628 140.03 647.848 139.65C648.068 139.27 648.318 138.94 648.618 138.66C648.918 138.38 649.278 138.15 649.698 137.98C650.118 137.81 650.568 137.73 651.058 137.73C651.358 137.73 651.658 137.76 651.948 137.83C652.238 137.9 652.528 138 652.818 138.14C653.108 138.28 653.368 138.48 653.618 138.74C653.858 139 654.068 139.3 654.228 139.65L655.718 138.65C655.318 137.85 654.718 137.22 653.918 136.74C653.118 136.26 652.188 136.02 651.138 136.02C650.428 136.02 649.748 136.13 649.118 136.36C648.488 136.59 647.938 136.9 647.488 137.29C647.028 137.68 646.628 138.13 646.298 138.65C645.968 139.16 645.718 139.71 645.548 140.28C645.378 140.86 645.298 141.44 645.298 142.03C645.298 142.79 645.438 143.55 645.728 144.29C646.018 145.03 646.408 145.7 646.898 146.29C647.398 146.88 648.008 147.35 648.728 147.71C649.458 148.07 650.228 148.25 651.048 148.25C651.698 148.25 652.338 148.15 652.978 147.94C653.618 147.73 654.208 147.41 654.748 146.97C655.288 146.53 655.668 146.03 655.908 145.45L654.318 144.55C654.118 145 653.838 145.38 653.468 145.68M670.138 137.93C669.648 137.35 669.038 136.89 668.308 136.53C667.578 136.18 666.798 136 665.958 136C665.118 136 664.378 136.17 663.648 136.51C662.918 136.85 662.308 137.3 661.798 137.85C661.288 138.41 660.888 139.06 660.588 139.8C660.288 140.54 660.148 141.31 660.148 142.11C660.148 142.72 660.238 143.33 660.418 143.93C660.598 144.53 660.858 145.09 661.198 145.6C661.538 146.11 661.938 146.57 662.398 146.96C662.858 147.35 663.398 147.66 664.008 147.89C664.618 148.11 665.258 148.23 665.938 148.23C666.748 148.23 667.518 148.06 668.248 147.73C668.968 147.4 669.588 146.95 670.088 146.39C670.588 145.83 670.988 145.18 671.288 144.44C671.588 143.7 671.728 142.93 671.728 142.13C671.728 141.33 671.588 140.63 671.308 139.89C671.028 139.16 670.638 138.5 670.148 137.92M669.508 143.72C669.338 144.24 669.088 144.71 668.778 145.13C668.468 145.55 668.058 145.88 667.568 146.14C667.078 146.39 666.538 146.52 665.948 146.52C665.188 146.52 664.508 146.31 663.908 145.89C663.308 145.47 662.858 144.93 662.548 144.26C662.238 143.6 662.088 142.88 662.088 142.12C662.088 141.57 662.178 141.04 662.358 140.52C662.538 140 662.788 139.53 663.108 139.12C663.428 138.71 663.838 138.37 664.328 138.12C664.828 137.87 665.368 137.74 665.948 137.74C666.528 137.74 667.038 137.86 667.518 138.1C667.998 138.34 668.408 138.66 668.728 139.07C669.048 139.48 669.308 139.94 669.488 140.47C669.678 141 669.768 141.55 669.768 142.12C669.768 142.69 669.678 143.2 669.508 143.72ZM685.488 144.81L678.648 136.09H677.088V148.16H678.988V139.63L685.738 148.16H687.408V136.11H685.488V144.81ZM701.308 142.79C701.098 142.55 700.818 142.34 700.468 142.15C700.118 141.96 699.758 141.8 699.378 141.68C698.998 141.56 698.548 141.43 698.018 141.3C697.688 141.22 697.418 141.15 697.218 141.1C697.018 141.05 696.798 140.98 696.558 140.91C696.318 140.84 696.138 140.76 695.998 140.7C695.858 140.63 695.728 140.55 695.588 140.46C695.448 140.37 695.348 140.27 695.278 140.17C695.208 140.07 695.148 139.95 695.108 139.82C695.068 139.69 695.038 139.54 695.038 139.37C695.038 138.84 695.228 138.43 695.628 138.14C696.018 137.85 696.608 137.7 697.388 137.7C698.048 137.7 698.698 137.83 699.318 138.1C699.938 138.37 700.388 138.64 700.648 138.93L701.508 137.37C700.278 136.46 698.918 136.01 697.438 136.01C696.808 136.01 696.238 136.09 695.708 136.25C695.178 136.41 694.718 136.64 694.318 136.95C693.928 137.25 693.618 137.64 693.388 138.11C693.168 138.58 693.048 139.1 693.048 139.68C693.048 140.14 693.118 140.55 693.268 140.89C693.408 141.23 693.638 141.52 693.958 141.77C694.278 142.02 694.638 142.23 695.058 142.4C695.478 142.57 695.998 142.74 696.638 142.91C697.048 143.02 697.368 143.1 697.608 143.17C697.848 143.24 698.118 143.32 698.408 143.42C698.698 143.52 698.918 143.62 699.078 143.71C699.238 143.8 699.388 143.92 699.538 144.05C699.688 144.18 699.788 144.33 699.858 144.49C699.918 144.65 699.948 144.83 699.948 145.03C699.948 145.53 699.748 145.91 699.338 146.18C698.928 146.45 698.348 146.58 697.598 146.58C696.758 146.58 695.948 146.41 695.158 146.08C694.368 145.75 693.798 145.4 693.448 145.04L692.578 146.67C693.268 147.2 694.038 147.6 694.888 147.88C695.748 148.16 696.638 148.3 697.548 148.3C698.048 148.3 698.508 148.26 698.938 148.18C699.368 148.1 699.778 147.97 700.148 147.79C700.528 147.61 700.848 147.39 701.108 147.12C701.378 146.85 701.578 146.53 701.738 146.14C701.888 145.75 701.968 145.32 701.968 144.84C701.968 144.41 701.908 144.02 701.778 143.69C701.658 143.35 701.488 143.07 701.278 142.83M706.198 137.77H710.218V148.15H712.148V137.77H716.158V136.09H706.198V137.77ZM729.498 142.23C729.928 141.57 730.148 140.83 730.148 140.01C730.148 139.53 730.058 139.05 729.868 138.58C729.678 138.11 729.428 137.69 729.108 137.32C728.788 136.95 728.388 136.65 727.918 136.42C727.448 136.19 726.948 136.08 726.418 136.08H721.168V148.15H723.068V143.95H725.868L728.488 148.15H730.628L727.788 143.56C728.498 143.33 729.068 142.89 729.498 142.23ZM726.398 142.27H723.058V137.77H726.288C726.798 137.77 727.248 137.99 727.628 138.43C728.018 138.87 728.208 139.4 728.208 140.01C728.208 140.62 728.038 141.17 727.698 141.61C727.358 142.05 726.918 142.27 726.398 142.27ZM744.098 142.2C744.098 142.65 744.068 143.08 743.998 143.48C743.928 143.88 743.818 144.27 743.658 144.65C743.498 145.03 743.298 145.35 743.048 145.62C742.808 145.89 742.488 146.11 742.108 146.27C741.728 146.43 741.288 146.51 740.788 146.51C740.288 146.51 739.868 146.43 739.488 146.27C739.108 146.11 738.798 145.9 738.548 145.63C738.308 145.36 738.098 145.04 737.938 144.67C737.778 144.29 737.658 143.9 737.598 143.5C737.528 143.09 737.498 142.66 737.498 142.2V136.08H735.588V142.2C735.588 142.85 735.648 143.46 735.758 144.03C735.868 144.6 736.058 145.15 736.318 145.67C736.578 146.19 736.908 146.64 737.298 147.01C737.688 147.38 738.188 147.68 738.778 147.9C739.368 148.12 740.048 148.23 740.788 148.23C741.688 148.23 742.478 148.07 743.168 147.76C743.848 147.44 744.398 147.01 744.808 146.44C745.218 145.88 745.518 145.24 745.718 144.53C745.918 143.82 746.018 143.04 746.018 142.19V136.07H744.098V142.19V142.2ZM759.368 145.68C758.998 145.99 758.618 146.21 758.218 146.34C757.818 146.47 757.418 146.53 756.998 146.53C756.268 146.53 755.598 146.32 754.998 145.91C754.398 145.5 753.928 144.95 753.598 144.28C753.268 143.6 753.108 142.88 753.108 142.1C753.108 141.67 753.158 141.25 753.258 140.84C753.358 140.42 753.518 140.03 753.738 139.65C753.958 139.27 754.208 138.94 754.508 138.66C754.808 138.38 755.168 138.15 755.588 137.98C756.008 137.81 756.458 137.73 756.948 137.73C757.248 137.73 757.548 137.76 757.838 137.83C758.128 137.9 758.418 138 758.708 138.14C758.998 138.28 759.258 138.48 759.508 138.74C759.748 139 759.958 139.3 760.118 139.65L761.608 138.65C761.208 137.85 760.598 137.22 759.808 136.74C759.008 136.26 758.078 136.02 757.028 136.02C756.318 136.02 755.638 136.13 755.008 136.36C754.378 136.59 753.828 136.9 753.378 137.29C752.918 137.68 752.518 138.13 752.188 138.65C751.858 139.16 751.608 139.71 751.438 140.28C751.268 140.86 751.188 141.44 751.188 142.03C751.188 142.76 751.318 143.48 751.578 144.2C751.838 144.91 752.198 145.56 752.658 146.13C753.118 146.71 753.678 147.18 754.358 147.57C755.028 147.95 755.748 148.17 756.518 148.23C757.128 148.63 757.428 149.05 757.428 149.49C757.428 149.75 757.338 149.95 757.158 150.08C756.978 150.22 756.728 150.28 756.408 150.28C756.038 150.28 755.638 150.16 755.208 149.92L754.738 150.92C755.378 151.25 756.038 151.41 756.738 151.41C757.328 151.41 757.778 151.27 758.108 150.98C758.438 150.69 758.598 150.3 758.598 149.82C758.598 149.22 758.308 148.67 757.728 148.19C758.628 148.06 759.448 147.76 760.208 147.27C760.968 146.79 761.498 146.17 761.808 145.43L760.218 144.53C760.018 144.98 759.738 145.36 759.368 145.66M770.278 136.08L765.548 148.15H767.578L768.838 144.87H773.498L774.768 148.15H776.778L772.088 136.08H770.288H770.278ZM769.178 143.46L771.178 138.17L773.118 143.46H769.178ZM769.248 134.48C769.268 134.41 769.298 134.32 769.348 134.21C769.398 134.1 769.488 134.01 769.608 133.94C769.728 133.87 769.878 133.83 770.058 133.83C770.258 133.83 770.468 133.89 770.688 134.01C770.908 134.13 771.158 134.25 771.418 134.38C771.688 134.5 771.958 134.56 772.258 134.56C772.558 134.56 772.798 134.5 773.038 134.38C773.278 134.26 773.458 134.12 773.598 133.95C773.738 133.78 773.858 133.6 773.948 133.41C774.048 133.22 774.108 133.05 774.148 132.91C774.188 132.77 774.198 132.67 774.198 132.59H773.128C773.128 132.59 773.128 132.66 773.118 132.71C773.118 132.76 773.088 132.83 773.048 132.91C773.008 133 772.958 133.07 772.898 133.15C772.838 133.22 772.738 133.29 772.628 133.34C772.508 133.4 772.368 133.42 772.218 133.42C771.988 133.42 771.758 133.36 771.528 133.23C771.298 133.11 771.048 132.98 770.798 132.86C770.548 132.74 770.278 132.67 769.998 132.67C769.728 132.67 769.488 132.73 769.268 132.84C769.048 132.95 768.878 133.09 768.748 133.26C768.618 133.42 768.508 133.6 768.418 133.79C768.328 133.98 768.268 134.15 768.228 134.29C768.198 134.43 768.178 134.55 768.178 134.63H769.228C769.228 134.63 769.228 134.54 769.248 134.47M791.578 139.9C791.298 139.17 790.908 138.51 790.418 137.93C789.928 137.35 789.318 136.89 788.588 136.53C787.858 136.18 787.078 136 786.238 136C785.398 136 784.658 136.17 783.928 136.51C783.208 136.85 782.588 137.3 782.078 137.85C781.568 138.41 781.168 139.06 780.868 139.8C780.568 140.54 780.428 141.31 780.428 142.11C780.428 142.72 780.518 143.33 780.698 143.93C780.878 144.53 781.138 145.09 781.478 145.6C781.818 146.11 782.218 146.57 782.678 146.96C783.138 147.35 783.678 147.66 784.288 147.89C784.898 148.11 785.538 148.23 786.218 148.23C787.028 148.23 787.798 148.06 788.528 147.73C789.248 147.4 789.868 146.95 790.368 146.39C790.868 145.83 791.268 145.18 791.568 144.44C791.868 143.7 792.008 142.93 792.008 142.13C792.008 141.33 791.868 140.63 791.588 139.89M789.798 143.72C789.628 144.24 789.378 144.71 789.068 145.13C788.748 145.55 788.348 145.88 787.858 146.14C787.368 146.39 786.828 146.52 786.238 146.52C785.478 146.52 784.798 146.31 784.198 145.89C783.598 145.47 783.148 144.93 782.838 144.26C782.528 143.6 782.378 142.88 782.378 142.12C782.378 141.57 782.468 141.04 782.648 140.52C782.828 140 783.078 139.53 783.398 139.12C783.718 138.71 784.128 138.37 784.618 138.12C785.118 137.87 785.658 137.74 786.238 137.74C786.818 137.74 787.328 137.86 787.808 138.1C788.288 138.34 788.698 138.66 789.018 139.07C789.338 139.48 789.598 139.94 789.778 140.47C789.958 141 790.058 141.55 790.058 142.12C790.058 142.69 789.968 143.2 789.798 143.72Z" fill="white"/>
<path d="M524.577 14.3694H528.717C528.357 15.3594 527.317 16.1794 525.687 16.1794C523.357 16.1794 521.757 14.5094 521.757 12.1994C521.757 9.88938 523.357 8.10937 525.617 8.10937C527.067 8.10937 528.307 8.80937 528.987 10.0294L532.507 7.92937C531.087 5.55937 528.487 4.10938 525.657 4.10938C521.187 4.10938 517.617 7.67937 517.617 12.1794C517.617 16.6794 521.167 20.1994 525.687 20.1994C529.937 20.1994 533.147 17.0794 533.147 12.2894V11.0894H524.587V14.3694H524.577ZM546.897 4.10938C542.397 4.10938 538.827 7.67937 538.827 12.1494C538.827 16.6194 542.397 20.1894 546.897 20.1894C551.397 20.1894 554.917 16.6194 554.917 12.1494C554.917 7.67937 551.347 4.10938 546.897 4.10938ZM546.897 15.9494C544.837 15.9494 543.257 14.3194 543.257 12.1494C543.257 9.97937 544.837 8.34938 546.897 8.34938C548.957 8.34938 550.467 9.97937 550.467 12.1494C550.467 14.3194 548.907 15.9494 546.897 15.9494ZM566.847 13.9394L563.277 4.46937H558.827L564.767 19.8294H568.907L574.917 4.46937H570.467L566.847 13.9394ZM580.307 19.8394H591.307V16.0894H584.457V13.8094H588.977V10.5094H584.457V8.22937H591.307V4.47937H580.307V19.8394ZM610.447 9.46938C610.447 6.61938 608.147 4.47937 605.137 4.47937H597.707V19.8394H601.797V14.5294H603.537L606.587 19.8394H611.177L607.767 13.9194C609.397 13.0594 610.457 11.4294 610.457 9.46938M604.687 11.0194H601.797V8.14937H604.687C605.677 8.14937 606.267 8.82938 606.267 9.59938C606.267 10.3694 605.657 11.0194 604.687 11.0194ZM626.557 12.5794L620.347 4.46937H616.867V19.8294H620.957V11.7394L627.147 19.8294H630.647V4.46937H626.557V12.5794ZM644.677 4.10938C640.177 4.10938 636.607 7.67937 636.607 12.1494C636.607 16.6194 640.177 20.1894 644.677 20.1894C649.177 20.1894 652.697 16.6194 652.697 12.1494C652.697 7.67937 649.127 4.10938 644.677 4.10938ZM644.677 15.9494C642.617 15.9494 641.037 14.3194 641.037 12.1494C641.037 9.97937 642.617 8.34938 644.677 8.34938C646.737 8.34938 648.247 9.97937 648.247 12.1494C648.247 14.3194 646.687 15.9494 644.677 15.9494ZM668.827 19.8394H672.987V14.2394H677.507V10.7594H672.987V8.15937H679.837V4.47937H668.837V19.8394H668.827ZM686.047 19.8394H697.047V16.0894H690.197V13.8094H694.717V10.5094H690.197V8.22937H697.047V4.47937H686.047V19.8394ZM709.697 4.46937H703.437V19.8294H709.697C714.377 19.8294 717.897 16.5494 717.897 12.1494C717.897 7.74937 714.377 4.46937 709.697 4.46937ZM709.497 15.8394H707.627V8.46938H709.497C711.937 8.46938 713.607 9.91937 713.607 12.1494C713.607 14.3794 711.937 15.8294 709.497 15.8294M723.867 19.8394H734.867V16.0894H728.017V13.8094H732.537V10.5094H728.017V8.22937H734.867V4.47937H723.867V19.8394ZM754.007 9.46938C754.007 6.61938 751.707 4.47937 748.697 4.47937H741.267V19.8394H745.357V14.5294H747.097L750.147 19.8394H754.737L751.327 13.9194C752.957 13.0594 754.017 11.4294 754.017 9.46938M748.237 11.0194H745.347V8.14937H748.237C749.227 8.14937 749.817 8.82938 749.817 9.59938C749.817 10.3694 749.207 11.0194 748.237 11.0194ZM765.687 4.46937L759.267 19.8294H763.587L764.647 17.1894H770.727L771.807 19.8294H776.097L769.617 4.46937H765.687ZM766.137 13.5294L767.677 9.75938L769.217 13.5294H766.147H766.137ZM785.857 15.8794V4.46937H781.497V19.8294H792.317V15.8794H785.857Z" fill="white"/>
<path d="M670.918 93.6592L684.618 116.689H695.938V73.1692H670.928V93.6592H670.918ZM705.888 66.6292H697.358V116.689H705.888C719.688 116.689 730.918 105.459 730.918 91.6592C730.918 77.8592 719.688 66.6292 705.888 66.6292ZM688.178 71.7292H695.938V37.1992H688.188C678.668 37.1992 670.928 44.9392 670.928 54.4592C670.928 63.9792 678.668 71.7192 688.188 71.7192M551.398 38.9092V84.6392H581.108L551.398 38.9092ZM765.058 89.5092H791.598V37.2092H765.058V89.5092ZM726.198 37.1992H697.368V65.1892H726.198V37.1992ZM793.038 116.689H819.578V90.9492H793.038V116.689ZM765.058 116.689H791.598V90.9492H765.058V116.689ZM732.358 116.689H758.898V37.1992H732.358V116.679V116.689ZM670.918 116.689H682.948L670.918 96.4692V116.689ZM539.248 52.7192C539.248 44.1592 532.288 37.1992 523.728 37.1992H517.968V68.2292H523.728C532.288 68.2292 539.248 61.2692 539.248 52.7092M489.988 68.2392H516.528V37.2092H489.988V68.2392ZM489.988 116.689H516.528V69.6692H489.988V116.689ZM526.448 69.6692H517.968V116.689H526.448C539.408 116.689 549.958 106.139 549.958 93.1792C549.958 80.2192 539.408 69.6692 526.448 69.6692ZM595.298 106.459L589.218 116.689H601.948L595.298 106.459ZM596.118 105.079L603.658 116.689H605.848C606.028 108.799 609.238 101.399 614.898 95.8492C620.588 90.2492 628.118 87.1692 636.078 87.1692C644.038 87.1692 651.558 90.2492 657.258 95.8492C662.908 101.409 666.118 108.799 666.308 116.689H669.488V94.0592L636.088 37.8992L596.128 105.089L596.118 105.079ZM606.148 60.9192C606.148 47.8392 595.508 37.1992 582.428 37.1992H551.998L582.818 84.6292C595.688 84.4192 606.148 73.7992 606.148 60.9092M636.078 88.5992C628.498 88.5992 621.338 91.5292 615.908 96.8592C610.528 102.139 607.468 109.179 607.278 116.689H664.868C664.688 109.179 661.628 102.149 656.238 96.8592C650.818 91.5292 643.648 88.5992 636.068 88.5992M582.038 86.0792H551.388V116.689H587.538L594.418 105.119L582.038 86.0792Z" fill="white"/>
<path d="M230.448 68.6885V57.1385L225.678 65.8985H224.168L219.378 57.1385V68.6885H216.828V52.4785H219.568L224.928 62.3885L230.288 52.4785H233.028V68.6885H230.438H230.448Z" fill="white"/>
<path d="M241.25 68.6885V52.4785H243.8V68.6885H241.25Z" fill="white"/>
<path d="M254.577 57.2285V68.6885H252.027V52.4785H254.127L263.317 64.1985V52.4985H265.897V68.6885H263.657L254.587 57.2285H254.577Z" fill="white"/>
<path d="M274.098 68.6885V52.4785H276.648V68.6885H274.098Z" fill="white"/>
<path d="M294.468 56.2894C294.118 55.8994 293.528 55.5294 292.688 55.1794C291.848 54.8194 290.978 54.6394 290.088 54.6394C289.028 54.6394 288.238 54.8294 287.718 55.2294C287.198 55.6194 286.928 56.1694 286.928 56.8894C286.928 57.1094 286.958 57.3094 287.018 57.4894C287.078 57.6694 287.158 57.8294 287.248 57.9594C287.338 58.0994 287.478 58.2294 287.668 58.3594C287.858 58.4894 288.038 58.5894 288.218 58.6794C288.398 58.7694 288.648 58.8594 288.968 58.9594C289.288 59.0594 289.578 59.1494 289.858 59.2194C290.128 59.2894 290.498 59.3794 290.938 59.4894C291.648 59.6594 292.258 59.8294 292.768 59.9994C293.278 60.1694 293.758 60.3794 294.228 60.6394C294.698 60.8994 295.068 61.1794 295.358 61.4994C295.638 61.8194 295.868 62.1994 296.028 62.6494C296.198 63.0994 296.278 63.6194 296.278 64.1994C296.278 64.8494 296.178 65.4294 295.968 65.9494C295.768 66.4694 295.478 66.9094 295.128 67.2694C294.768 67.6294 294.338 67.9294 293.838 68.1694C293.338 68.4094 292.788 68.5894 292.208 68.6894C291.628 68.7994 291.008 68.8494 290.338 68.8494C289.108 68.8494 287.908 68.6594 286.758 68.2894C285.608 67.9194 284.568 67.3694 283.648 66.6694L284.818 64.4694C285.288 64.9494 286.048 65.4194 287.108 65.8694C288.168 66.3194 289.258 66.5394 290.378 66.5394C291.388 66.5394 292.168 66.3594 292.718 65.9994C293.268 65.6394 293.538 65.1294 293.538 64.4594C293.538 64.1894 293.498 63.9494 293.418 63.7394C293.338 63.5194 293.198 63.3294 292.998 63.1494C292.798 62.9694 292.588 62.8194 292.378 62.6994C292.168 62.5794 291.868 62.4394 291.478 62.3094C291.088 62.1794 290.728 62.0594 290.408 61.9794C290.088 61.8894 289.648 61.7794 289.098 61.6294C288.248 61.4094 287.538 61.1794 286.978 60.9494C286.418 60.7194 285.928 60.4394 285.498 60.0994C285.068 59.7694 284.758 59.3694 284.568 58.9094C284.378 58.4494 284.278 57.9094 284.278 57.2894C284.278 56.5094 284.428 55.8094 284.728 55.1794C285.028 54.5494 285.448 54.0294 285.968 53.6194C286.498 53.2094 287.118 52.8994 287.828 52.6794C288.538 52.4594 289.318 52.3594 290.158 52.3594C292.148 52.3594 293.978 52.9694 295.638 54.1894L294.478 56.2894H294.468Z" fill="white"/>
<path d="M315.288 54.7385H309.898V68.6885H307.308V54.7385H301.898V52.4785H315.278V54.7385H315.288Z" fill="white"/>
<path d="M333.14 66.4288V68.6888H322.02V52.4788H332.939V54.7388H324.579V59.3388H331.819V61.4688H324.579V66.4188H333.14V66.4288ZM328.599 50.8088L326.949 50.3088L328.25 47.7988H330.65L328.599 50.8088Z" fill="white"/>
<path d="M340.348 68.6885V52.4785H347.408C348.118 52.4785 348.788 52.6285 349.418 52.9385C350.058 53.2385 350.588 53.6485 351.018 54.1385C351.448 54.6385 351.788 55.1985 352.048 55.8285C352.298 56.4585 352.428 57.0985 352.428 57.7485C352.428 58.8485 352.138 59.8385 351.558 60.7285C350.978 61.6185 350.208 62.2085 349.258 62.5185L353.068 68.6885H350.188L346.668 63.0485H342.898V68.6885H340.348ZM342.898 60.7885H347.378C348.088 60.7885 348.668 60.4885 349.128 59.8985C349.588 59.3085 349.818 58.5885 349.818 57.7485C349.818 56.9085 349.558 56.2185 349.038 55.6285C348.518 55.0385 347.918 54.7385 347.228 54.7385H342.888V60.7785L342.898 60.7885Z" fill="white"/>
<path d="M360 68.6885V52.4785H362.55V68.6885H360Z" fill="white"/>
<path d="M369.75 60.5894C369.75 59.5194 369.95 58.4794 370.35 57.4794C370.75 56.4794 371.29 55.5994 371.97 54.8494C372.65 54.0994 373.48 53.4994 374.46 53.0394C375.43 52.5894 376.47 52.3594 377.56 52.3594C378.65 52.3594 379.73 52.5994 380.72 53.0694C381.7 53.5494 382.52 54.1694 383.18 54.9494C383.84 55.7294 384.36 56.6094 384.74 57.5894C385.12 58.5694 385.31 59.5794 385.31 60.5894C385.31 61.6594 385.11 62.6894 384.71 63.6894C384.31 64.6894 383.78 65.5594 383.1 66.3094C382.42 67.0594 381.6 67.6594 380.62 68.1094C379.65 68.5594 378.61 68.7794 377.52 68.7794C376.61 68.7794 375.75 68.6294 374.93 68.3294C374.11 68.0294 373.39 67.6094 372.77 67.0894C372.15 66.5594 371.61 65.9494 371.15 65.2594C370.69 64.5694 370.34 63.8194 370.11 63.0094C369.88 62.1994 369.75 61.3894 369.75 60.5594V60.5894ZM377.54 66.4994C378.33 66.4994 379.05 66.3294 379.71 65.9894C380.37 65.6494 380.91 65.1994 381.34 64.6394C381.76 64.0794 382.09 63.4494 382.33 62.7494C382.56 62.0494 382.68 61.3294 382.68 60.5994C382.68 59.8694 382.56 59.0994 382.31 58.3894C382.06 57.6794 381.72 57.0494 381.28 56.5094C380.84 55.9594 380.3 55.5294 379.65 55.2094C379 54.8894 378.3 54.7194 377.54 54.7194C376.78 54.7194 376.03 54.8894 375.36 55.2294C374.69 55.5694 374.15 56.0194 373.72 56.5694C373.29 57.1294 372.95 57.7594 372.72 58.4494C372.48 59.1494 372.36 59.8694 372.36 60.5994C372.36 61.6294 372.57 62.5794 372.98 63.4794C373.39 64.3694 374 65.0994 374.8 65.6694C375.6 66.2394 376.52 66.5194 377.54 66.5194V66.4994Z" fill="white"/>
<path d="M402.707 68.6885V52.4785H408.457C409.727 52.4785 410.867 52.6885 411.887 53.1085C412.897 53.5285 413.737 54.1085 414.377 54.8485C415.027 55.5885 415.517 56.4385 415.857 57.4085C416.197 58.3785 416.367 59.4285 416.367 60.5585C416.367 63.0085 415.647 64.9785 414.207 66.4585C412.767 67.9385 410.857 68.6785 408.457 68.6785H402.707V68.6885ZM408.467 54.7385H405.267V66.4285H408.467C409.577 66.4285 410.547 66.1685 411.347 65.6585C412.157 65.1385 412.757 64.4485 413.157 63.5685C413.557 62.6885 413.757 61.6885 413.757 60.5685C413.757 58.8385 413.287 57.4385 412.347 56.3585C411.407 55.2885 410.107 54.7485 408.457 54.7485L408.467 54.7385Z" fill="white"/>
<path d="M427.719 52.4785H430.139L436.439 68.6885H433.739L432.029 64.2885H425.769L424.079 68.6885H421.359L427.719 52.4785ZM431.529 62.3885L428.919 55.2885L426.229 62.3885H431.529Z" fill="white"/>
<path d="M312.218 84.4395C313.738 84.4395 315.088 84.7595 316.258 85.3995C317.428 86.0395 318.298 86.8995 318.868 87.9795L315.468 90.3995C315.318 90.0195 315.118 89.6994 314.868 89.4194C314.618 89.1494 314.328 88.9395 314.018 88.7995C313.708 88.6595 313.398 88.5494 313.088 88.4894C312.778 88.4294 312.458 88.3995 312.138 88.3995C311.528 88.3995 310.978 88.5194 310.498 88.7694C310.018 89.0194 309.628 89.3495 309.348 89.7595C309.058 90.1695 308.848 90.6195 308.698 91.1095C308.548 91.5995 308.478 92.1095 308.478 92.6395C308.478 93.8195 308.818 94.8294 309.488 95.6694C310.168 96.5094 311.068 96.9295 312.188 96.9295C312.627 96.9295 313.048 96.8695 313.448 96.7495C313.848 96.6295 314.238 96.4094 314.598 96.0994C314.968 95.7894 315.238 95.4094 315.408 94.9494L319.038 97.1095C318.728 97.8795 318.198 98.5494 317.438 99.1395C316.677 99.7295 315.828 100.159 314.898 100.449C313.968 100.739 313.028 100.879 312.088 100.879C310.928 100.879 309.837 100.639 308.807 100.149C307.777 99.6695 306.908 99.0295 306.208 98.2495C305.508 97.4695 304.947 96.5694 304.547 95.5594C304.137 94.5494 303.938 93.5295 303.938 92.4995C303.938 91.4695 304.128 90.5295 304.508 89.5695C304.888 88.6195 305.428 87.7494 306.118 86.9894C306.808 86.2294 307.678 85.6095 308.748 85.1395C309.808 84.6695 310.968 84.4395 312.228 84.4395H312.218Z" fill="white"/>
<path d="M332.248 100.879C331.238 100.879 330.318 100.739 329.498 100.459C328.678 100.179 327.987 99.7891 327.427 99.2991C326.867 98.8091 326.398 98.2191 326.018 97.5391C325.638 96.8591 325.368 96.1291 325.198 95.3491C325.028 94.5691 324.938 93.7491 324.938 92.8691V84.5391H329.398V92.8691C329.398 93.4291 329.447 93.9391 329.557 94.4191C329.667 94.8991 329.827 95.3291 330.047 95.7091C330.267 96.0891 330.568 96.3891 330.938 96.6091C331.307 96.8291 331.748 96.9391 332.248 96.9391C332.748 96.9391 333.198 96.8291 333.578 96.6091C333.958 96.3891 334.258 96.0791 334.478 95.6891C334.698 95.2991 334.858 94.8691 334.968 94.3991C335.078 93.9291 335.128 93.4191 335.128 92.8791V84.5491H339.578V92.8791C339.578 94.0291 339.428 95.0891 339.128 96.0491C338.828 97.0091 338.387 97.8491 337.807 98.5791C337.227 99.3091 336.458 99.8791 335.508 100.289C334.558 100.699 333.478 100.899 332.248 100.899V100.879Z" fill="white"/>
<path d="M346.699 100.739V84.5293H351.149V96.8593H358.509V100.739H346.699Z" fill="white"/>
<path d="M375.067 88.4093H370.417V100.739H365.957V88.4093H361.277V84.5293H375.067V88.4093Z" fill="white"/>
<path d="M388.337 100.879C387.327 100.879 386.407 100.739 385.587 100.459C384.767 100.179 384.077 99.7891 383.517 99.2991C382.957 98.8091 382.487 98.2191 382.107 97.5391C381.727 96.8591 381.457 96.1291 381.287 95.3491C381.117 94.5691 381.027 93.7491 381.027 92.8691V84.5391H385.487V92.8691C385.487 93.4291 385.537 93.9391 385.647 94.4191C385.757 94.8991 385.917 95.3291 386.137 95.7091C386.357 96.0891 386.657 96.3891 387.027 96.6091C387.397 96.8291 387.837 96.9391 388.337 96.9391C388.837 96.9391 389.287 96.8291 389.667 96.6091C390.047 96.3891 390.347 96.0791 390.567 95.6891C390.787 95.2991 390.947 94.8691 391.057 94.3991C391.167 93.9291 391.217 93.4191 391.217 92.8791V84.5491H395.667V92.8791C395.667 94.0291 395.517 95.0891 395.217 96.0491C394.917 97.0091 394.477 97.8491 393.897 98.5791C393.317 99.3091 392.547 99.8791 391.597 100.289C390.647 100.699 389.567 100.899 388.337 100.899V100.879Z" fill="white"/>
<path d="M402.777 100.739V84.5293H410.227C410.997 84.5293 411.717 84.6893 412.417 85.0193C413.117 85.3493 413.687 85.7693 414.157 86.2993C414.627 86.8293 414.997 87.4293 415.277 88.0993C415.547 88.7693 415.687 89.4493 415.687 90.1493C415.687 91.0893 415.477 91.9593 415.067 92.7793C414.657 93.5993 414.087 94.2593 413.357 94.7793L416.777 100.749H411.897L409.047 95.7793H407.237V100.749H402.787L402.777 100.739ZM407.227 91.8793H410.037C410.327 91.8793 410.587 91.7193 410.817 91.4093C411.047 91.0893 411.167 90.6793 411.167 90.1593C411.167 89.6393 411.037 89.2193 410.777 88.8993C410.517 88.5793 410.237 88.4193 409.927 88.4193H407.227V91.8893V91.8793Z" fill="white"/>
<path d="M426.509 84.5293H431.479L436.639 100.739H432.119L431.139 97.5593H426.809L425.849 100.739H421.309L426.499 84.5293H426.509ZM430.429 94.5993L428.989 88.8893L427.479 94.5993H430.419H430.429Z" fill="white"/>
<path d="M50.7266 85.0594V71.1895H52.0966V83.8394H60.0966V85.0495H50.7266V85.0594Z" fill="white"/>
<path d="M71.4177 83.8494V85.0594H62.0977V71.1895H71.2477V72.3995H63.4777V77.3995H70.2477V78.5495H63.4777V83.8394H71.4177V83.8494Z" fill="white"/>
<path d="M73.9961 85.0594V71.1895H75.3661V85.0594H73.9961Z" fill="white"/>
<path d="M50.1875 105.659V91.7891H56.1676C56.8176 91.7891 57.4476 91.9291 58.0376 92.2091C58.6276 92.4891 59.1276 92.8591 59.5276 93.3091C59.9276 93.7591 60.2475 94.2691 60.4775 94.8491C60.7175 95.4291 60.8275 96.0091 60.8275 96.5991C60.8275 97.1891 60.7176 97.8091 60.4976 98.3891C60.2776 98.9691 59.9675 99.4791 59.5775 99.9291C59.1875 100.379 58.6976 100.729 58.1276 100.999C57.5476 101.269 56.9276 101.409 56.2676 101.409H53.9976V105.659H50.1975H50.1875ZM53.9875 98.0791H55.9976C56.2676 98.0791 56.4875 97.9591 56.6775 97.7291C56.8675 97.4891 56.9575 97.1191 56.9575 96.5991C56.9575 96.0791 56.8476 95.6991 56.6376 95.4691C56.4276 95.2291 56.1776 95.1191 55.8976 95.1191H53.9775V98.0891L53.9875 98.0791Z" fill="white"/>
<path d="M65.5471 91.7891H69.7971L74.2172 105.659H70.3572L69.5172 102.939H65.8171L64.9972 105.659H61.1172L65.5471 91.7891ZM68.9072 100.399L67.6771 95.5191L66.3872 100.399H68.9072Z" fill="white"/>
<path d="M81.4279 105.769C80.5679 105.769 79.7779 105.649 79.0779 105.409C78.3779 105.169 77.7879 104.839 77.3079 104.419C76.8279 103.999 76.4279 103.499 76.0979 102.909C75.7779 102.329 75.5379 101.699 75.3879 101.039C75.2379 100.379 75.168 99.6691 75.168 98.9191V91.7991H78.9779V98.9191C78.9779 99.3991 79.0279 99.8391 79.1179 100.249C79.2079 100.659 79.348 101.019 79.538 101.349C79.728 101.679 79.9779 101.929 80.2979 102.119C80.6179 102.309 80.988 102.399 81.418 102.399C81.848 102.399 82.2279 102.299 82.5479 102.109C82.8679 101.919 83.1279 101.659 83.3179 101.319C83.5079 100.989 83.6479 100.619 83.7379 100.209C83.8279 99.8091 83.8779 99.3691 83.8779 98.9091V91.7891H87.6779V98.9091C87.6779 99.8991 87.5479 100.799 87.2979 101.619C87.0479 102.439 86.668 103.159 86.168 103.779C85.668 104.399 85.0179 104.889 84.2079 105.239C83.3979 105.589 82.468 105.759 81.418 105.759L81.4279 105.769Z" fill="white"/>
<path d="M89.8694 105.659V91.7891H93.6694V102.339H99.9594V105.659H89.8594H89.8694Z" fill="white"/>
<path d="M100.539 98.709C100.539 97.799 100.719 96.919 101.069 96.069C101.419 95.219 101.909 94.479 102.529 93.829C103.149 93.189 103.899 92.669 104.789 92.289C105.679 91.909 106.619 91.709 107.629 91.709C108.639 91.709 109.599 91.909 110.489 92.319C111.379 92.719 112.119 93.259 112.719 93.919C113.309 94.579 113.779 95.339 114.119 96.179C114.459 97.029 114.629 97.889 114.629 98.769C114.629 99.649 114.449 100.549 114.099 101.389C113.749 102.239 113.259 102.979 112.649 103.629C112.039 104.279 111.279 104.789 110.389 105.179C109.499 105.569 108.549 105.759 107.549 105.759C106.549 105.759 105.579 105.559 104.689 105.159C103.799 104.759 103.059 104.229 102.459 103.569C101.859 102.909 101.389 102.149 101.049 101.309C100.709 100.459 100.539 99.589 100.539 98.699V98.709ZM107.579 102.399C108.109 102.399 108.579 102.289 108.999 102.079C109.419 101.869 109.749 101.579 109.999 101.229C110.249 100.869 110.439 100.479 110.559 100.059C110.689 99.629 110.749 99.189 110.749 98.719C110.749 98.069 110.639 97.479 110.409 96.949C110.179 96.419 109.819 95.979 109.329 95.629C108.839 95.279 108.249 95.109 107.559 95.109C107.029 95.109 106.559 95.209 106.149 95.419C105.739 95.629 105.409 95.909 105.159 96.259C104.909 96.609 104.719 96.999 104.599 97.419C104.469 97.849 104.409 98.289 104.409 98.759C104.409 99.229 104.479 99.689 104.609 100.119C104.739 100.549 104.929 100.939 105.189 101.279C105.439 101.629 105.779 101.899 106.189 102.099C106.599 102.299 107.069 102.409 107.589 102.409L107.579 102.399Z" fill="white"/>
<path d="M57.0376 118.879H62.7375V126.259H59.5875V125.109C58.6075 125.939 57.4675 126.359 56.1775 126.359C55.2675 126.359 54.4075 126.199 53.5975 125.869C52.7875 125.539 52.0675 125.079 51.4475 124.489C50.8275 123.899 50.3375 123.139 49.9775 122.229C49.6175 121.319 49.4375 120.319 49.4375 119.219C49.4375 118.259 49.6175 117.349 49.9875 116.499C50.3575 115.649 50.8575 114.919 51.4875 114.299C52.1175 113.689 52.8676 113.199 53.7476 112.839C54.6276 112.479 55.5575 112.299 56.5475 112.299C57.7975 112.299 58.9275 112.569 59.9375 113.109C60.9475 113.649 61.6975 114.389 62.1975 115.319L59.3776 117.479C59.1076 116.929 58.6976 116.489 58.1476 116.159C57.5976 115.829 57.0176 115.659 56.4076 115.659C55.5076 115.659 54.7575 115.999 54.1775 116.689C53.5975 117.379 53.3075 118.259 53.3075 119.329C53.3075 120.399 53.5975 121.289 54.1875 121.959C54.7775 122.629 55.5476 122.959 56.4976 122.959C57.5876 122.959 58.5675 122.509 59.4375 121.599H57.0376V118.859V118.879Z" fill="white"/>
<path d="M70.6663 126.38C69.8063 126.38 69.0162 126.26 68.3162 126.02C67.6162 125.78 67.0261 125.45 66.5461 125.03C66.0661 124.61 65.6662 124.11 65.3362 123.52C65.0162 122.94 64.7762 122.31 64.6262 121.65C64.4762 120.99 64.4062 120.28 64.4062 119.53V112.41H68.2162V119.53C68.2162 120.01 68.2662 120.45 68.3562 120.86C68.4462 121.27 68.5862 121.63 68.7762 121.96C68.9662 122.29 69.2163 122.54 69.5363 122.73C69.8563 122.92 70.2263 123.01 70.6562 123.01C71.0862 123.01 71.4663 122.91 71.7863 122.72C72.1063 122.53 72.3662 122.27 72.5562 121.93C72.7462 121.6 72.8862 121.23 72.9762 120.82C73.0662 120.42 73.1162 119.98 73.1162 119.52V112.4H76.9163V119.52C76.9163 120.51 76.7863 121.41 76.5363 122.23C76.2863 123.05 75.9062 123.77 75.4062 124.39C74.9062 125.01 74.2562 125.5 73.4462 125.85C72.6362 126.2 71.7063 126.37 70.6562 126.37L70.6663 126.38Z" fill="white"/>
<path d="M87.5179 116.929C87.4579 116.899 87.388 116.849 87.288 116.799C87.188 116.739 86.9979 116.639 86.7079 116.489C86.4179 116.339 86.1279 116.219 85.8479 116.099C85.5679 115.989 85.2379 115.889 84.8679 115.789C84.4979 115.699 84.1579 115.649 83.8379 115.649C83.0979 115.649 82.7179 115.879 82.7179 116.339C82.7179 116.439 82.7379 116.529 82.7679 116.619C82.7979 116.699 82.8679 116.779 82.9579 116.849C83.0479 116.919 83.1379 116.979 83.2179 117.029C83.3079 117.079 83.4379 117.139 83.6179 117.199C83.7979 117.259 83.9479 117.309 84.0779 117.349C84.2079 117.389 84.398 117.449 84.658 117.529C84.918 117.609 85.1279 117.669 85.2979 117.729C85.8579 117.899 86.3279 118.069 86.7279 118.239C87.1179 118.409 87.4979 118.609 87.8679 118.849C88.2379 119.089 88.5279 119.349 88.7579 119.639C88.9879 119.929 89.158 120.269 89.288 120.669C89.418 121.069 89.4879 121.529 89.4879 122.039C89.4879 122.679 89.3879 123.259 89.1779 123.779C88.9779 124.289 88.7079 124.719 88.3679 125.039C88.0379 125.369 87.638 125.639 87.168 125.859C86.708 126.079 86.2279 126.229 85.7379 126.319C85.2479 126.409 84.7379 126.449 84.1979 126.449C83.1979 126.449 82.1579 126.299 81.0579 126.009C79.9679 125.709 78.998 125.319 78.168 124.829L79.8079 121.489C79.8679 121.529 79.9579 121.589 80.0679 121.659C80.1779 121.729 80.4079 121.849 80.7579 122.019C81.1079 122.189 81.448 122.349 81.788 122.479C82.128 122.609 82.5279 122.739 82.9879 122.849C83.4479 122.959 83.8779 123.019 84.2679 123.019C85.0079 123.019 85.3779 122.819 85.3779 122.409C85.3779 122.259 85.3279 122.119 85.2379 121.999C85.1379 121.879 84.9879 121.769 84.7579 121.679C84.5379 121.579 84.3179 121.499 84.1179 121.429C83.9079 121.359 83.6179 121.269 83.2379 121.159C82.8579 121.049 82.5479 120.949 82.2979 120.869C81.0479 120.449 80.1579 119.949 79.6079 119.359C79.0579 118.769 78.788 117.979 78.788 116.979C78.788 116.239 78.9279 115.559 79.2079 114.959C79.4879 114.359 79.8679 113.859 80.3479 113.479C80.8279 113.099 81.3779 112.809 81.9979 112.599C82.6179 112.399 83.2679 112.289 83.9579 112.289C85.4379 112.289 87.168 112.789 89.158 113.789L87.5179 116.939V116.929Z" fill="white"/>
<path d="M101.956 115.709H97.9762V126.259H94.1663V115.709H90.1562V112.389H101.956V115.709Z" fill="white"/>
<path d="M106.539 112.4H110.789L115.209 126.27H111.349L110.509 123.55H106.809L105.989 126.27H102.109L106.539 112.4ZM109.899 121.01L108.669 116.13L107.379 121.01H109.899Z" fill="white"/>
<path d="M119.047 112.4L121.757 121.87L124.437 112.4H128.447L123.657 126.27H119.867L115.027 112.4H119.047Z" fill="white"/>
<path d="M128.727 119.309C128.727 118.399 128.907 117.519 129.257 116.669C129.607 115.819 130.097 115.079 130.717 114.429C131.337 113.789 132.087 113.269 132.977 112.889C133.867 112.509 134.807 112.309 135.817 112.309C136.827 112.309 137.787 112.509 138.677 112.919C139.567 113.319 140.307 113.859 140.907 114.519C141.497 115.179 141.967 115.939 142.307 116.779C142.647 117.629 142.817 118.489 142.817 119.369C142.817 120.249 142.637 121.149 142.287 121.989C141.937 122.839 141.447 123.579 140.837 124.229C140.227 124.879 139.467 125.389 138.577 125.779C137.687 126.169 136.737 126.359 135.737 126.359C134.737 126.359 133.767 126.159 132.877 125.759C131.987 125.359 131.247 124.829 130.647 124.169C130.047 123.509 129.577 122.749 129.237 121.909C128.897 121.059 128.727 120.189 128.727 119.299V119.309ZM135.767 122.999C136.297 122.999 136.767 122.889 137.187 122.679C137.607 122.469 137.937 122.179 138.187 121.829C138.437 121.469 138.627 121.079 138.747 120.659C138.877 120.229 138.937 119.789 138.937 119.319C138.937 118.669 138.827 118.079 138.597 117.549C138.367 117.019 138.007 116.579 137.517 116.229C137.027 115.879 136.437 115.709 135.747 115.709C135.217 115.709 134.747 115.809 134.337 116.019C133.927 116.229 133.597 116.509 133.347 116.859C133.097 117.209 132.907 117.599 132.787 118.019C132.657 118.449 132.597 118.889 132.597 119.359C132.597 119.829 132.667 120.289 132.797 120.719C132.927 121.149 133.117 121.539 133.377 121.879C133.627 122.229 133.967 122.499 134.377 122.699C134.787 122.899 135.257 123.009 135.777 123.009L135.767 122.999Z" fill="white"/>
<path d="M15.7481 102.859C17.8381 98.8185 16.2481 93.8385 12.2081 91.7585C8.1681 89.6685 3.18813 91.2585 1.10813 95.2985C-0.981873 99.3385 0.608105 104.319 4.6481 106.399C8.6881 108.489 13.6681 106.899 15.7481 102.859Z" fill="white"/>
<path d="M17.2775 84.3384C19.6975 89.1284 20.8375 94.4784 20.5575 99.9784C20.2075 106.768 17.7275 113.118 13.4675 118.258C11.7775 120.308 11.8175 123.278 13.5975 125.248C15.7775 127.658 19.5875 127.568 21.6575 125.068C27.3875 118.168 30.7275 109.638 31.1875 100.518C31.5475 93.5384 30.1775 86.7284 27.2875 80.5684" fill="white"/>
<path d="M17.2773 84.3381C20.7673 83.5181 24.1274 82.2681 27.2874 80.5781L17.2773 84.3381Z" fill="white"/>
<path d="M23.1766 65.3684C27.5166 63.9884 29.9066 59.3484 28.5266 55.0084C27.1466 50.6684 22.5066 48.2784 18.1666 49.6584C13.8266 51.0384 11.4366 55.6784 12.8166 60.0184C14.1966 64.3584 18.8366 66.7484 23.1766 65.3684Z" fill="white"/>
<path d="M54.5088 44.0091C58.5088 46.1791 63.5087 44.6991 65.6887 40.6991C67.8587 36.6991 66.3788 31.6991 62.3788 29.5191C58.3788 27.3491 53.3787 28.8291 51.1987 32.8291C49.0287 36.8291 50.5088 41.8291 54.5088 44.0091Z" fill="white"/>
<path d="M48.8695 50.5684C48.8695 50.9584 48.8495 51.3484 48.7695 51.7484C48.8495 51.3484 48.8795 50.9584 48.8695 50.5684Z" fill="white"/>
<path d="M75.3703 52.2288C74.4603 51.1888 73.6003 50.1088 72.7903 48.9888C72.5203 48.6188 72.2603 48.2388 72.0003 47.8488C71.7403 47.4688 71.4903 47.0788 71.2503 46.6888C66.8803 48.4588 62.1303 49.2288 57.2803 48.8788C50.5003 48.3888 44.2003 45.7788 39.1503 41.4088C37.1403 39.6688 34.1703 39.6488 32.1603 41.3888C29.7003 43.5188 29.7103 47.3288 32.1703 49.4488C33.8103 50.8688 35.5403 52.1388 37.3603 53.2788C37.3603 53.2788 37.3803 53.2288 37.3803 53.2088C37.7503 52.0588 38.0802 50.8988 38.3202 49.7088C38.5102 48.7288 38.9602 47.8588 39.5902 47.1588C39.7402 46.9888 39.9102 46.8288 40.0802 46.6788C40.2902 46.4988 40.5103 46.3388 40.7403 46.1988C41.6303 45.6388 42.7002 45.3288 43.8202 45.3888C45.0402 45.4488 46.1303 45.9088 46.9803 46.6388C47.2603 46.8788 47.5203 47.1488 47.7503 47.4388C47.8603 47.5888 47.9702 47.7388 48.0702 47.8988C48.4602 48.5288 48.7302 49.2488 48.8302 49.9988C48.8602 50.1888 48.8703 50.3788 48.8803 50.5788C48.8803 50.9688 48.8603 51.3588 48.7803 51.7588C48.7303 52.0188 48.6703 52.2688 48.6103 52.5188C48.2203 54.2988 47.7303 56.0388 47.1203 57.7388C50.1403 58.6688 53.2903 59.2688 56.5203 59.4988C64.1503 60.0488 71.6003 58.5388 78.2703 55.1988C77.2503 54.2588 76.2903 53.2688 75.3803 52.2288H75.3703Z" fill="white"/>
<path d="M42.0799 55.8193C40.4499 55.0793 38.8699 54.2293 37.3499 53.2793C35.6799 58.3993 32.7099 63.0393 28.6099 66.7493C23.5599 71.3093 17.3199 74.0393 10.6699 74.6693C8.01993 74.9193 5.94996 77.0493 5.81996 79.6993C5.64996 82.9493 8.40991 85.5793 11.6499 85.2693C13.5599 85.0893 15.4399 84.7793 17.2799 84.3393C16.7099 83.2193 16.0799 82.1293 15.3699 81.0693C13.8899 78.8593 14.2399 75.9093 16.2099 74.1293C18.6199 71.9493 22.3999 72.4293 24.2099 75.1293C25.3799 76.8793 26.3999 78.6993 27.2899 80.5793C30.2999 78.9793 33.1399 76.9893 35.7399 74.6393C40.9499 69.9393 44.7999 64.1393 47.0999 57.7193C45.8099 57.3193 44.5399 56.8593 43.2999 56.3493C42.8899 56.1793 42.4799 55.9993 42.0699 55.8093L42.0799 55.8193Z" fill="white"/>
<path d="M48.0703 47.8887C48.4603 48.5187 48.7303 49.2387 48.8303 49.9887C48.7303 49.2287 48.4603 48.5187 48.0703 47.8887Z" fill="white"/>
<path d="M37.3789 53.209C37.7489 52.059 38.0788 50.899 38.3188 49.709C38.0788 50.899 37.7589 52.059 37.3789 53.209Z" fill="white"/>
<path d="M40.0781 46.6792C40.2881 46.4992 40.5082 46.3392 40.7382 46.1992C40.5082 46.3492 40.2781 46.4992 40.0781 46.6792Z" fill="white"/>
<path d="M117.89 58.9587C117.08 56.4287 114.53 54.9087 111.91 55.3387C105.32 56.4387 98.5904 55.4087 92.5404 52.2987C86.4904 49.1887 81.7203 44.3187 78.7803 38.3287C77.6103 35.9387 74.8803 34.7587 72.3503 35.5687C69.2503 36.5687 67.7703 40.0687 69.2003 42.9887C69.8203 44.2587 70.5103 45.4787 71.2503 46.6687C73.0003 45.9587 74.6902 45.0987 76.3002 44.0687C78.5402 42.6387 81.4803 43.0387 83.2203 45.0487C85.3503 47.5087 84.7902 51.2787 82.0502 53.0287C80.8202 53.8187 79.5503 54.5287 78.2603 55.1787C81.0403 57.7587 84.2004 59.9787 87.6704 61.7587C95.7904 65.9287 104.85 67.3187 113.69 65.8287C116.9 65.2887 118.88 62.0387 117.89 58.9487V58.9587Z" fill="white"/>
<path d="M75.3711 52.2285C76.2811 53.2685 77.2511 54.2585 78.2611 55.1985C77.2411 54.2585 76.2811 53.2685 75.3711 52.2285Z" fill="white"/>
<path d="M103.466 48.0797C107.036 45.2497 107.626 40.0697 104.796 36.4997C101.966 32.9297 96.7864 32.3397 93.2164 35.1697C89.6464 37.9997 89.0565 43.1797 91.8865 46.7497C94.7165 50.3197 99.8964 50.9097 103.466 48.0797Z" fill="white"/>
<path d="M179.816 0V155.54" stroke="white" stroke-width="2.3" stroke-miterlimit="10"/>
</svg>
