<svg width="377" height="377" viewBox="0 0 377 377" fill="none" xmlns="http://www.w3.org/2000/svg">
<path d="M121.948 210.066C122.384 209.934 122.735 209.68 123.013 209.306C128.178 205.625 136.526 207.652 139.974 199.892C138.316 199.167 136.985 198.492 135.594 197.973C132.159 196.693 128.711 195.474 125.263 194.231C124.005 192.215 122.142 191.141 119.843 190.719C116.529 188.413 113.202 186.108 109.887 183.815C108.786 182.439 107.673 181.063 106.572 179.687C103.294 176.766 100.028 173.845 96.7612 170.912C95.491 168.909 94.2207 166.917 92.9505 164.914C92.1883 162.355 91.4262 159.796 90.6641 157.237C91.0028 153.447 92.8779 151.432 96.8822 151.915C99.6041 154.232 101.83 154.606 104.637 151.48C107.528 148.257 111.496 147.799 115.476 150.056L115.464 149.923C116.117 150.358 116.758 150.804 117.412 151.239C120.521 151.54 123.642 151.842 126.751 152.156C132.691 155.56 138.643 158.963 144.583 162.355C145.127 162.56 145.901 163.115 146.192 162.934C147.22 162.27 146.772 161.426 146.119 160.689C142.95 153.254 139.78 145.831 136.61 138.397C135.981 135.681 135.51 132.917 134.699 130.262C133.562 126.532 130.537 122.38 134.566 119.254C138.437 116.261 143.446 117.069 147.825 118.88C150.934 120.171 153.753 122.139 156.704 123.804C158.785 128.017 161.519 131.589 166.007 133.496C166.612 134.027 167.229 134.558 167.834 135.089C173.568 141.643 180.899 146.242 187.807 151.371C190.493 153.363 193.239 154.003 194.061 149.887C195.187 144.202 198.755 139.012 197.618 132.869C197.848 131.082 198.066 129.296 198.296 127.522C198.562 126.194 198.828 124.866 199.094 123.527C199.517 117.081 199.941 110.636 200.364 104.179C201.526 103.177 202.675 102.175 203.836 101.174C206.34 99.9787 208.748 98.47 211.373 97.6975C213.732 96.9975 216.926 96.8285 217.131 100.317C217.652 109.067 223.725 116.43 223.144 125.397C221.632 133.4 224.208 141.245 224.088 149.175C224.039 152.023 221.656 155.837 225.902 156.924C229.253 157.78 231.237 154.679 232.447 151.673C234.612 149.356 236.79 147.051 238.955 144.733C244.702 141.752 248.041 135.198 255.045 134.039C263.271 132.676 265.05 135.089 263.441 142.959C261.215 153.846 260.102 164.962 258.444 175.97C257.852 179.88 259.872 181.135 263.259 180.846C271.522 180.146 279.228 183.368 287.297 184.068C291.301 184.418 296.479 185.239 296.37 190.26C296.249 195.655 295.245 201.968 288.652 203.911C282.398 205.745 275.962 207.484 269.514 207.954C261.735 208.521 258.275 213.53 261.203 218.962C269.731 234.785 259.291 244.731 250.835 254.326C235.774 271.393 215.74 278.852 193.069 277.355C180.561 276.534 170.193 270.813 162.693 259.902C156.571 250.983 147.825 243.934 143.542 233.639C141.788 229.426 138.268 229.788 134.832 230.404C125.94 232.009 117.073 233.759 108.205 235.461C106.415 235.352 104.612 235.244 102.822 235.135C101.818 234.568 100.814 233.989 99.8219 233.421C99.6888 230.621 99.5557 227.809 99.4226 225.009C106.209 218.914 115.476 216.56 121.997 210.066H121.948ZM197.908 236.125C197.908 232.757 198.017 230.899 197.896 229.052C197.134 217.622 195.513 216.403 184.456 218.745C183.246 218.998 182.024 219.215 180.791 219.348C176.387 219.855 171.052 220.471 170.858 225.673C170.665 230.597 171.633 236.258 177.028 239.239C179.194 240.434 181.299 241.749 183.549 242.751C187.662 244.586 191.582 249.836 195.876 247.531C200.364 245.117 197.195 238.998 197.921 236.125H197.908ZM223.35 214.375C215.837 213.868 213.163 215.92 213.538 221.822C214.022 229.462 217.555 236.873 214.772 244.815C213.889 247.326 216.26 248.327 218.849 248.496C227.91 249.124 241.798 230.718 238.617 222.027C238.23 220.977 237.177 219.843 236.149 219.42C231.31 217.369 226.362 215.546 223.35 214.375Z" fill="#2B3986"/>
<path d="M85.9153 174.28C86.6654 174.654 87.1493 174.895 87.6211 175.137C87.2461 175.873 86.871 176.621 86.496 177.358C86.0121 177.116 85.1169 176.814 85.1411 176.645C85.25 175.849 85.625 175.088 85.9153 174.28Z" fill="#2B3986"/>
<path d="M203.792 101.185C202.631 102.187 201.482 103.189 200.32 104.19C200.683 102.283 201.445 100.823 203.792 101.185Z" fill="#2B3986"/>
<path d="M199.063 123.526C198.796 124.854 198.53 126.181 198.264 127.521C197.466 125.976 197.708 124.649 199.063 123.526Z" fill="#2B3986"/>
<path d="M146.087 160.678C146.74 161.414 147.188 162.259 146.16 162.923C145.869 163.104 145.107 162.561 144.551 162.344C145.059 161.789 145.567 161.233 146.087 160.678Z" fill="#2B3986"/>
</svg>
