<svg width="136" height="37" viewBox="0 0 136 37" fill="none" xmlns="http://www.w3.org/2000/svg">
<path d="M6.11719 1.875V36H0.421875V1.875H6.11719ZM17.6484 16.0547V36H12.1875V10.6406H17.3203L17.6484 16.0547ZM16.6641 22.4062H14.9297C14.9141 20.5781 15.1094 18.9141 15.5156 17.4141C15.9219 15.9141 16.5 14.625 17.25 13.5469C18.0156 12.4688 18.9219 11.6406 19.9688 11.0625C21.0312 10.4688 22.2109 10.1719 23.5078 10.1719C24.5078 10.1719 25.4219 10.3438 26.25 10.6875C27.0938 11.0156 27.8125 11.5547 28.4062 12.3047C29 13.0547 29.4531 14.0312 29.7656 15.2344C30.0938 16.4375 30.2578 17.9062 30.2578 19.6406V36H24.7969V19.5938C24.7969 18.4062 24.6641 17.4688 24.3984 16.7812C24.1484 16.0781 23.7734 15.5781 23.2734 15.2812C22.7734 14.9688 22.1406 14.8125 21.375 14.8125C20.6719 14.8125 20.0234 15.0156 19.4297 15.4219C18.8516 15.8125 18.3516 16.3594 17.9297 17.0625C17.5234 17.75 17.2109 18.5547 16.9922 19.4766C16.7734 20.3828 16.6641 21.3594 16.6641 22.4062ZM45.9844 10.6406V14.8594H33.5391V10.6406H45.9844ZM36.9375 4.42969H42.375V28.9219C42.375 29.7031 42.4609 30.2969 42.6328 30.7031C42.8047 31.1094 43.0469 31.3828 43.3594 31.5234C43.6719 31.6641 44.0391 31.7344 44.4609 31.7344C44.7734 31.7344 45.0781 31.7109 45.375 31.6641C45.6875 31.6016 45.9141 31.5469 46.0547 31.5V35.9062C45.6484 36.0625 45.1797 36.1953 44.6484 36.3047C44.1172 36.4141 43.4766 36.4688 42.7266 36.4688C41.6172 36.4688 40.625 36.2422 39.75 35.7891C38.875 35.3203 38.1875 34.5625 37.6875 33.5156C37.1875 32.4531 36.9375 31.0469 36.9375 29.2969V4.42969ZM59.9297 36.4688C58.2891 36.4688 56.8281 36.2266 55.5469 35.7422C54.2656 35.2422 53.1797 34.5078 52.2891 33.5391C51.3984 32.5547 50.7188 31.3516 50.25 29.9297C49.7812 28.4922 49.5469 26.8281 49.5469 24.9375V22.5C49.5469 20.3594 49.7891 18.5156 50.2734 16.9688C50.7734 15.4062 51.4609 14.125 52.3359 13.125C53.2109 12.125 54.2422 11.3828 55.4297 10.8984C56.6328 10.4141 57.9375 10.1719 59.3438 10.1719C60.9375 10.1719 62.3203 10.4297 63.4922 10.9453C64.6641 11.4609 65.625 12.2344 66.375 13.2656C67.1406 14.2969 67.7031 15.5703 68.0625 17.0859C68.4375 18.6016 68.625 20.3438 68.625 22.3125V25.0547H52.1719V20.9297H63.2344V20.3438C63.2031 19.1875 63.0625 18.1953 62.8125 17.3672C62.5625 16.5234 62.1562 15.8828 61.5938 15.4453C61.0469 14.9922 60.2891 14.7656 59.3203 14.7656C58.6172 14.7656 57.9922 14.8984 57.4453 15.1641C56.8984 15.4297 56.4453 15.8594 56.0859 16.4531C55.7422 17.0469 55.4766 17.8438 55.2891 18.8438C55.1016 19.8281 55.0078 21.0469 55.0078 22.5V24.9375C55.0078 26.2031 55.1172 27.2734 55.3359 28.1484C55.5703 29.0234 55.9141 29.7422 56.3672 30.3047C56.8203 30.8516 57.3672 31.2578 58.0078 31.5234C58.6641 31.7734 59.4219 31.8984 60.2812 31.8984C61.5469 31.8984 62.6328 31.6641 63.5391 31.1953C64.4609 30.7109 65.2578 30.0859 65.9297 29.3203L68.3438 32.6719C67.8906 33.2812 67.2812 33.8828 66.5156 34.4766C65.75 35.0547 64.8203 35.5312 63.7266 35.9062C62.6484 36.2812 61.3828 36.4688 59.9297 36.4688ZM78.4688 15.5391V36H73.0078V10.6406H78.2109L78.4688 15.5391ZM84.5859 10.4766L84.5625 15.8672C84.25 15.7891 83.9141 15.7422 83.5547 15.7266C83.2109 15.6953 82.8672 15.6797 82.5234 15.6797C81.7734 15.6797 81.125 15.8125 80.5781 16.0781C80.0312 16.3438 79.5703 16.7266 79.1953 17.2266C78.8203 17.7266 78.5234 18.3281 78.3047 19.0312C78.1016 19.7344 77.9766 20.5312 77.9297 21.4219L76.7578 21.4688C76.7578 19.875 76.8828 18.3984 77.1328 17.0391C77.3828 15.6641 77.7578 14.4688 78.2578 13.4531C78.7734 12.4219 79.4141 11.6172 80.1797 11.0391C80.9453 10.4609 81.8359 10.1719 82.8516 10.1719C83.1328 10.1719 83.4531 10.2031 83.8125 10.2656C84.1719 10.3281 84.4297 10.3984 84.5859 10.4766ZM94.125 10.6406V36H88.6641V10.6406H94.125ZM88.3828 4.00781C88.3828 3.13281 88.6484 2.40625 89.1797 1.82812C89.7109 1.23438 90.4531 0.9375 91.4062 0.9375C92.3594 0.9375 93.1016 1.23438 93.6328 1.82812C94.1641 2.40625 94.4297 3.13281 94.4297 4.00781C94.4297 4.85156 94.1641 5.5625 93.6328 6.14062C93.1016 6.71875 92.3594 7.00781 91.4062 7.00781C90.4531 7.00781 89.7109 6.71875 89.1797 6.14062C88.6484 5.5625 88.3828 4.85156 88.3828 4.00781ZM99.1641 24.3516V22.3125C99.1641 20.3438 99.4062 18.6016 99.8906 17.0859C100.375 15.5703 101.062 14.3047 101.953 13.2891C102.859 12.2578 103.922 11.4844 105.141 10.9688C106.359 10.4375 107.703 10.1719 109.172 10.1719C110.672 10.1719 112.031 10.4375 113.25 10.9688C114.484 11.4844 115.547 12.2578 116.438 13.2891C117.344 14.3047 118.039 15.5703 118.523 17.0859C119.008 18.6016 119.25 20.3438 119.25 22.3125V24.3516C119.25 26.3203 119.008 28.0625 118.523 29.5781C118.039 31.0938 117.344 32.3672 116.438 33.3984C115.547 34.4141 114.492 35.1797 113.273 35.6953C112.055 36.2109 110.703 36.4688 109.219 36.4688C107.75 36.4688 106.398 36.2109 105.164 35.6953C103.945 35.1797 102.883 34.4141 101.977 33.3984C101.07 32.3672 100.375 31.0938 99.8906 29.5781C99.4062 28.0625 99.1641 26.3203 99.1641 24.3516ZM104.625 22.3125V24.3516C104.625 25.6172 104.734 26.7266 104.953 27.6797C105.172 28.6172 105.484 29.3984 105.891 30.0234C106.297 30.6484 106.781 31.1172 107.344 31.4297C107.906 31.7422 108.531 31.8984 109.219 31.8984C109.984 31.8984 110.648 31.7422 111.211 31.4297C111.789 31.1172 112.266 30.6484 112.641 30.0234C113.031 29.3984 113.32 28.6172 113.508 27.6797C113.695 26.7266 113.789 25.6172 113.789 24.3516V22.3125C113.789 21.0625 113.68 19.9688 113.461 19.0312C113.242 18.0781 112.93 17.2891 112.523 16.6641C112.117 16.0234 111.625 15.5469 111.047 15.2344C110.484 14.9219 109.859 14.7656 109.172 14.7656C108.5 14.7656 107.883 14.9219 107.32 15.2344C106.773 15.5469 106.297 16.0234 105.891 16.6641C105.484 17.2891 105.172 18.0781 104.953 19.0312C104.734 19.9688 104.625 21.0625 104.625 22.3125ZM129.422 15.5391V36H123.961V10.6406H129.164L129.422 15.5391ZM135.539 10.4766L135.516 15.8672C135.203 15.7891 134.867 15.7422 134.508 15.7266C134.164 15.6953 133.82 15.6797 133.477 15.6797C132.727 15.6797 132.078 15.8125 131.531 16.0781C130.984 16.3438 130.523 16.7266 130.148 17.2266C129.773 17.7266 129.477 18.3281 129.258 19.0312C129.055 19.7344 128.93 20.5312 128.883 21.4219L127.711 21.4688C127.711 19.875 127.836 18.3984 128.086 17.0391C128.336 15.6641 128.711 14.4688 129.211 13.4531C129.727 12.4219 130.367 11.6172 131.133 11.0391C131.898 10.4609 132.789 10.1719 133.805 10.1719C134.086 10.1719 134.406 10.2031 134.766 10.2656C135.125 10.3281 135.383 10.3984 135.539 10.4766Z" fill="white"/>
</svg>
